<?xml version="1.0" encoding="utf-8" ?>
<svg baseProfile="tiny" height="2048" version="1.2" width="2048" xmlns="http://www.w3.org/2000/svg" xmlns:ev="http://www.w3.org/2001/xml-events" xmlns:xlink="http://www.w3.org/1999/xlink"><defs /><polygon fill="white" points="492,816 490,812 490,809 490,809 487,807 487,802 482,800 482,800 482,795 482,795 480,793 475,790 475,788 475,788 473,778 473,778 470,776 468,773 468,771 468,769 466,766 463,762 463,759 463,759 463,754 463,754 461,752 461,750 461,750 461,745 459,742 459,740 459,740 456,735 454,733 454,731 451,728 449,726 449,723 447,721 447,721 444,719 442,716 437,711 435,707 435,707 430,704 425,704 425,702 425,702 423,700 423,700 418,700 416,697 408,692 406,690 406,690 401,690 401,690 396,690 396,690 392,690 385,690 382,692 375,695 368,700 365,702 361,702 356,707 356,707 351,707 349,707 346,707 346,707 344,709 344,709 339,709 339,709 334,709 334,709 330,709 327,709 327,709 323,709 323,709 318,709 318,709 313,709 311,709 308,709 306,711 306,711 301,711 301,711 296,716 296,716 292,716 289,719 289,719 287,723 284,726 284,726 282,728 282,733 280,735 277,738 275,742 275,742 275,747 272,750 272,750 272,754 270,754 270,754 270,759 268,762 268,762 268,766 268,766 268,771 268,776 268,776 268,783 268,783 263,788 263,788 263,793 263,797 263,797 260,802 260,802 260,807 260,812 256,814 256,814 256,819 253,819 253,819 251,826 251,826 249,831 249,831 246,833 246,833 241,836 241,836 239,840 239,840 239,847 239,847 239,852 239,852 239,857 239,857 239,862 239,862 239,869 239,869 239,874 239,874 241,878 241,878 241,883 241,883 241,888 241,888 244,895 244,895 244,900 244,900 246,905 246,905 249,907 249,907 249,912 249,912 251,914 251,914 256,919 256,919 258,921 260,926 263,929 263,929 265,931 265,931 268,936 268,936 270,938 270,938 270,943 272,945 280,950 280,950 282,955 284,957 284,957 289,962 289,962 294,964 294,964 299,964 301,969 301,969 306,969 306,969 308,974 313,974 315,976 315,976 320,979 320,979 325,979 327,981 327,981 332,981 332,981 337,983 337,983 342,983 342,983 344,986 344,986 346,988 346,988 351,988 351,988 356,988 358,991 358,991 363,991 368,991 368,991 375,991 375,991 382,991 387,991 387,991 392,991 396,991 396,991 404,991 404,991 411,991 411,991 418,991 418,991 423,991 428,991 432,991 432,991 437,991 437,991 442,991 442,991 447,991 447,991 451,991 451,991 456,991 456,991 461,991 461,991 463,988 463,988 468,986 468,986 470,983 470,983 475,983 478,981 478,981 478,976 480,974 482,972 482,972 485,967 485,964 485,964 485,960 485,957 487,955 487,955 487,950 490,945 490,945 490,940 490,938 490,936 492,933 492,933 492,929 492,924 492,924 492,919 494,914 497,912 497,912 499,907 499,907 499,902 499,902 501,900 501,898 501,898 504,895 504,895 504,890 506,886 506,886 506,881 506,878 506,876 506,876 506,871 506,869 506,867 506,867 506,859 506,857 506,852 506,850 506,847 506,847 506,843 506,840 506,836 506,836 506,831 506,828 506,828 506,824 506,821 506,816 506,816 504,812 504,809 504,809 501,807 492,816" stroke="#f8691c" stroke-width="5" /><polygon fill="white" points="986,373 981,373 976,373 974,373 969,375 969,375 964,375 964,375 962,377 960,380 960,380 957,382 955,382 955,382 952,387 950,389 943,396 940,399 940,399 936,399 933,404 933,404 929,406 929,406 926,411 926,411 921,411 919,413 917,416 917,416 914,418 912,420 909,423 909,423 905,428 905,428 902,430 902,430 898,432 893,435 893,435 888,439 888,439 886,442 886,442 878,447 876,447 874,449 874,449 869,449 867,451 864,454 864,454 859,454 857,456 855,456 850,461 845,461 845,461 840,461 838,463 836,463 836,463 833,466 833,466 831,468 828,470 828,470 821,473 819,475 816,478 814,480 814,480 812,482 809,485 809,485 807,487 807,492 807,492 802,494 800,499 800,499 800,504 797,509 795,509 795,509 795,513 795,513 793,518 793,518 793,523 793,523 793,528 793,532 790,537 790,537 788,540 788,540 788,544 788,544 788,549 788,549 788,554 788,554 788,559 788,559 788,564 788,568 788,568 788,575 788,575 788,583 788,583 788,590 788,590 788,597 788,597 790,602 790,602 790,606 790,611 790,611 793,618 795,621 795,621 797,628 797,633 797,633 797,637 797,637 802,640 802,640 802,645 802,645 804,649 804,649 804,654 804,654 809,661 809,661 812,668 814,673 816,676 816,676 819,680 819,680 819,685 819,685 821,688 826,692 826,692 826,697 828,700 831,704 831,704 833,709 833,709 836,714 838,719 838,719 840,721 843,723 843,723 845,726 845,726 850,728 850,728 855,731 855,731 859,731 859,731 864,731 864,731 869,731 869,731 876,731 876,731 881,731 881,731 886,731 886,731 890,731 890,731 895,731 895,731 900,731 900,731 905,731 905,731 909,731 909,731 914,728 914,728 919,728 919,728 924,728 926,726 926,726 933,723 933,723 938,721 943,721 945,719 950,716 952,714 952,714 957,711 960,709 960,709 962,707 964,704 964,702 967,700 967,700 967,695 967,695 972,692 974,690 974,690 974,685 974,685 979,680 981,678 983,676 983,673 986,671 988,668 991,666 993,664 995,661 995,661 998,659 1000,657 1003,654 1003,652 1005,649 1005,649 1007,647 1007,645 1010,642 1012,640 1014,637 1017,635 1019,633 1019,633 1022,630 1024,628 1024,626 1024,626 1029,623 1029,623 1034,621 1036,618 1041,616 1045,614 1045,614 1050,614 1053,611 1053,611 1057,609 1057,609 1062,606 1065,604 1069,604 1069,604 1072,599 1072,599 1076,597 1076,595 1079,592 1079,592 1081,585 1081,580 1081,580 1084,578 1084,575 1084,573 1084,573 1086,566 1086,564 1086,564 1086,559 1086,559 1088,556 1088,556 1091,552 1091,552 1091,544 1091,544 1091,537 1091,535 1093,532 1093,532 1093,528 1093,525 1093,525 1093,521 1093,518 1093,516 1093,516 1093,509 1091,506 1088,501 1088,501 1086,497 1086,492 1086,492 1084,490 1081,487 1081,487 1079,485 1079,485 1076,480 1076,478 1069,470 1067,468 1067,468 1065,466 1065,461 1060,459 1060,456 1060,456 1057,454 1053,451 1053,449 1050,449 1050,447 1048,444 1045,439 1045,439 1043,437 1043,437 1041,435 1038,432 1036,428 1034,425 1034,425 1031,420 1031,418 1031,418 1031,413 1031,411 1029,408 1029,408 1026,404 1026,401 1026,399 1024,396 1024,396 1024,392 1024,389 1024,389 1022,385 1022,385 1019,380 1019,380 1017,377 1017,377 1014,375 1012,373 1010,370 1007,368 1007,368 1003,368 1003,368 998,368 986,373" stroke="#f8691c" stroke-width="5" /><polygon fill="white" points="1303,1630 1301,1625 1301,1623 1298,1621 1298,1621 1298,1616 1298,1613 1298,1611 1298,1611 1296,1609 1296,1609 1294,1604 1294,1602 1294,1602 1294,1597 1294,1594 1294,1592 1291,1587 1291,1585 1291,1582 1289,1580 1289,1580 1289,1575 1286,1573 1286,1568 1286,1568 1284,1563 1282,1561 1282,1561 1279,1559 1279,1559 1277,1554 1277,1551 1277,1551 1275,1549 1272,1547 1272,1544 1272,1544 1267,1542 1265,1540 1263,1537 1263,1537 1260,1535 1260,1535 1258,1532 1255,1530 1255,1530 1251,1528 1251,1528 1246,1525 1241,1523 1241,1523 1234,1520 1234,1520 1227,1520 1224,1518 1220,1516 1220,1516 1212,1513 1212,1513 1205,1511 1205,1511 1201,1511 1201,1511 1196,1511 1191,1511 1191,1511 1184,1511 1184,1511 1181,1509 1177,1509 1177,1509 1170,1509 1170,1509 1162,1509 1162,1509 1160,1511 1160,1511 1158,1513 1155,1516 1155,1516 1153,1518 1153,1518 1150,1523 1150,1523 1150,1528 1150,1532 1150,1532 1148,1535 1148,1535 1146,1537 1146,1542 1146,1542 1146,1549 1146,1549 1146,1556 1146,1556 1146,1563 1146,1563 1148,1566 1148,1571 1150,1575 1150,1575 1153,1580 1155,1582 1155,1582 1158,1587 1160,1590 1160,1590 1162,1592 1162,1592 1165,1597 1167,1599 1167,1599 1170,1602 1170,1602 1172,1604 1172,1604 1174,1609 1177,1611 1177,1611 1179,1613 1179,1613 1181,1616 1184,1618 1184,1618 1186,1621 1186,1621 1189,1623 1191,1625 1193,1625 1198,1628 1203,1630 1203,1630 1208,1633 1208,1633 1212,1633 1217,1633 1217,1633 1220,1635 1224,1635 1224,1635 1227,1637 1232,1637 1234,1637 1234,1637 1239,1637 1246,1640 1246,1640 1251,1640 1253,1640 1253,1640 1258,1642 1258,1642 1263,1642 1263,1642 1270,1642 1275,1642 1275,1642 1279,1642 1279,1642 1284,1642 1284,1642 1289,1642 1291,1642 1294,1642 1294,1642 1298,1642 1298,1640 1301,1637 1303,1635 1303,1630" stroke="#f8691c" stroke-width="5" /><polygon fill="white" points="1599,1754 1599,1749 1597,1749 1592,1745 1589,1742 1589,1742 1587,1740 1587,1740 1585,1738 1585,1738 1580,1738 1580,1738 1578,1733 1575,1730 1570,1728 1568,1726 1566,1723 1563,1721 1561,1718 1558,1716 1554,1714 1554,1714 1551,1711 1551,1711 1547,1707 1547,1707 1544,1704 1544,1704 1542,1702 1542,1702 1537,1702 1532,1699 1532,1699 1525,1697 1525,1697 1518,1695 1518,1695 1513,1695 1513,1695 1511,1692 1511,1692 1504,1692 1504,1692 1496,1692 1496,1692 1489,1692 1489,1692 1482,1692 1482,1692 1477,1692 1477,1692 1475,1695 1473,1697 1473,1697 1473,1702 1473,1702 1470,1709 1470,1709 1470,1714 1470,1714 1468,1716 1468,1716 1468,1721 1468,1721 1465,1726 1465,1726 1465,1730 1465,1735 1463,1738 1463,1742 1461,1745 1461,1749 1461,1749 1461,1757 1461,1757 1461,1764 1461,1764 1463,1766 1465,1771 1465,1771 1468,1773 1470,1776 1470,1776 1473,1778 1473,1778 1475,1783 1480,1785 1480,1785 1482,1790 1487,1792 1487,1792 1489,1797 1489,1797 1489,1802 1494,1804 1494,1804 1494,1809 1494,1809 1494,1814 1494,1814 1496,1816 1496,1816 1499,1821 1499,1821 1501,1823 1504,1823 1508,1826 1508,1826 1511,1828 1513,1831 1518,1831 1520,1835 1520,1835 1525,1835 1527,1838 1530,1840 1530,1840 1535,1843 1537,1845 1537,1845 1542,1847 1547,1847 1547,1847 1549,1852 1551,1854 1551,1854 1554,1857 1554,1857 1556,1859 1558,1862 1558,1862 1566,1862 1568,1864 1570,1866 1573,1869 1575,1871 1580,1874 1582,1876 1585,1878 1587,1881 1592,1881 1592,1881 1597,1885 1599,1888 1601,1888 1604,1888 1606,1888 1606,1888 1611,1888 1611,1888 1616,1888 1616,1888 1620,1888 1623,1888 1625,1888 1625,1888 1630,1888 1630,1888 1637,1888 1637,1888 1644,1885 1644,1885 1649,1885 1652,1883 1654,1881 1654,1881 1654,1876 1654,1874 1654,1874 1654,1869 1654,1866 1654,1864 1654,1864 1654,1859 1654,1857 1652,1854 1652,1850 1652,1847 1649,1845 1647,1843 1647,1843 1644,1840 1644,1838 1642,1835 1640,1833 1640,1833 1637,1828 1635,1823 1635,1823 1635,1819 1632,1816 1630,1814 1630,1814 1628,1809 1625,1804 1623,1802 1620,1800 1618,1797 1618,1797 1616,1792 1613,1788 1613,1785 1609,1781 1609,1778 1606,1776 1606,1776 1606,1771 1604,1769 1601,1766 1601,1766 1599,1761 1599,1759 1597,1749 1599,1754" stroke="#f8691c" stroke-width="5" /><polygon fill="white" points="1709,1217 1706,1213 1704,1213 1704,1213 1699,1213 1699,1213 1694,1213 1694,1213 1690,1213 1690,1213 1685,1213 1685,1213 1680,1213 1678,1215 1678,1215 1675,1217 1675,1217 1671,1217 1671,1217 1668,1220 1668,1220 1663,1222 1661,1225 1659,1227 1659,1227 1656,1229 1654,1232 1652,1234 1649,1237 1649,1237 1647,1241 1647,1241 1647,1246 1644,1248 1644,1248 1642,1253 1642,1253 1642,1258 1642,1258 1642,1263 1640,1268 1640,1268 1640,1272 1637,1275 1637,1275 1637,1279 1637,1279 1635,1284 1635,1284 1635,1289 1635,1289 1635,1294 1635,1294 1635,1299 1635,1299 1635,1303 1635,1303 1635,1308 1635,1308 1635,1315 1635,1315 1637,1320 1637,1320 1640,1325 1640,1325 1642,1327 1644,1327 1644,1327 1649,1327 1652,1330 1654,1332 1654,1332 1659,1334 1661,1334 1663,1334 1663,1334 1668,1334 1668,1334 1675,1337 1675,1337 1678,1339 1678,1339 1683,1339 1683,1339 1687,1339 1687,1339 1692,1339 1692,1339 1697,1339 1699,1339 1702,1339 1704,1339 1704,1339 1709,1339 1709,1339 1714,1339 1714,1339 1718,1339 1721,1339 1723,1339 1723,1339 1728,1337 1728,1337 1733,1337 1735,1334 1737,1332 1740,1330 1742,1327 1742,1327 1747,1325 1749,1322 1749,1320 1749,1320 1754,1318 1754,1318 1759,1318 1761,1315 1761,1315 1764,1313 1764,1310 1764,1310 1766,1308 1766,1308 1768,1306 1771,1303 1773,1301 1773,1299 1773,1299 1773,1294 1773,1291 1776,1289 1776,1289 1776,1284 1776,1282 1776,1279 1776,1279 1776,1275 1776,1272 1776,1270 1773,1268 1773,1268 1771,1263 1766,1258 1766,1258 1764,1251 1759,1248 1754,1244 1754,1241 1752,1239 1752,1239 1747,1232 1745,1229 1745,1229 1745,1225 1745,1225 1742,1220 1737,1217 1735,1215 1735,1213 1735,1210 1735,1210 1730,1210 1730,1210 1709,1217" stroke="#f8691c" stroke-width="5" /><polygon fill="white" points="544,1494 535,1492 532,1489 532,1489 528,1487 528,1485 528,1485 523,1485 523,1485 518,1485 516,1482 511,1482 511,1482 506,1477 506,1477 501,1477 499,1475 499,1475 497,1473 497,1473 492,1473 490,1470 490,1470 487,1468 487,1468 482,1466 482,1463 482,1463 480,1461 475,1461 473,1456 473,1456 468,1456 466,1454 463,1451 463,1451 459,1449 459,1449 454,1446 449,1444 447,1442 442,1439 437,1439 435,1437 435,1437 430,1437 425,1435 423,1432 423,1432 420,1430 416,1427 413,1425 411,1423 408,1420 404,1418 404,1415 404,1415 401,1413 401,1413 399,1411 396,1408 396,1406 394,1404 389,1399 389,1396 389,1396 387,1392 387,1392 382,1389 380,1387 380,1387 377,1382 377,1380 373,1377 373,1377 370,1373 368,1370 365,1365 365,1365 363,1361 363,1361 361,1358 358,1353 358,1353 356,1349 356,1346 356,1346 354,1341 354,1339 354,1337 354,1337 354,1332 351,1327 351,1327 349,1322 349,1320 349,1318 349,1318 349,1313 349,1310 349,1308 349,1308 349,1303 349,1301 349,1299 349,1299 349,1291 349,1289 349,1284 349,1282 349,1279 349,1279 349,1275 349,1270 349,1270 349,1265 351,1260 351,1256 354,1256 354,1256 354,1251 356,1248 356,1248 358,1246 358,1244 358,1241 358,1239 358,1239 358,1234 358,1232 356,1229 356,1229 354,1227 354,1227 346,1225 342,1222 337,1220 334,1217 334,1217 330,1217 327,1215 327,1215 323,1213 318,1213 315,1210 313,1208 313,1208 306,1205 303,1201 303,1201 299,1196 299,1194 299,1191 299,1191 299,1186 301,1184 306,1179 306,1179 313,1177 315,1174 318,1172 318,1172 323,1172 325,1170 327,1167 327,1167 332,1165 337,1165 344,1165 344,1165 349,1165 349,1163 351,1160 354,1160 356,1160 356,1160 363,1160 363,1160 370,1160 375,1160 375,1160 380,1160 380,1160 385,1160 385,1160 389,1160 394,1160 399,1160 399,1160 404,1163 404,1163 408,1167 416,1170 418,1172 423,1174 423,1174 425,1177 425,1177 430,1182 430,1182 432,1186 432,1186 432,1191 432,1191 432,1196 435,1196 435,1196 435,1201 435,1201 437,1208 437,1208 437,1213 439,1215 439,1215 439,1220 439,1225 442,1227 442,1227 442,1232 442,1232 444,1239 447,1241 447,1241 447,1246 447,1246 449,1248 449,1248 449,1253 449,1253 454,1260 454,1260 456,1268 456,1268 456,1272 461,1275 461,1275 463,1277 463,1277 466,1284 466,1284 470,1287 470,1287 475,1291 478,1294 480,1296 482,1299 482,1299 485,1301 485,1301 490,1303 492,1306 494,1308 494,1308 499,1310 501,1313 501,1313 506,1318 509,1320 513,1322 513,1322 518,1327 521,1330 523,1332 525,1334 528,1337 530,1339 532,1339 537,1341 537,1341 540,1344 540,1344 544,1346 547,1349 549,1351 554,1353 556,1356 559,1358 561,1361 561,1361 564,1363 566,1365 568,1368 571,1368 571,1368 571,1373 573,1375 575,1377 578,1380 583,1384 585,1387 585,1387 587,1392 590,1396 592,1399 592,1399 597,1404 597,1404 599,1408 602,1413 604,1415 606,1418 609,1420 611,1425 614,1427 616,1430 616,1430 621,1432 623,1435 623,1435 628,1437 628,1437 630,1442 633,1444 633,1444 637,1446 642,1449 645,1451 647,1451 649,1454 652,1456 654,1458 654,1458 659,1463 659,1463 661,1466 661,1466 666,1468 671,1470 671,1470 673,1473 673,1473 678,1477 678,1477 680,1480 683,1485 683,1485 685,1487 688,1489 690,1494 690,1494 692,1497 692,1497 697,1501 697,1501 700,1504 702,1506 704,1509 707,1511 707,1511 711,1516 711,1516 714,1518 714,1518 716,1523 719,1525 721,1528 721,1528 721,1532 723,1535 726,1537 726,1537 728,1542 731,1547 731,1547 733,1551 733,1551 735,1554 735,1554 738,1556 738,1556 740,1563 740,1563 742,1566 742,1566 745,1571 747,1571 750,1575 750,1575 752,1578 752,1578 754,1582 757,1585 757,1585 759,1587 762,1590 764,1592 766,1592 766,1592 769,1594 771,1597 776,1599 776,1599 781,1604 785,1606 785,1606 788,1609 790,1611 795,1613 797,1616 797,1616 802,1618 804,1621 804,1621 809,1623 812,1625 816,1628 819,1630 821,1633 828,1635 828,1635 831,1637 836,1640 838,1645 843,1645 845,1647 845,1647 850,1649 852,1652 855,1654 857,1656 859,1659 862,1661 864,1661 867,1664 867,1664 869,1666 869,1666 869,1671 871,1673 871,1673 874,1678 876,1680 876,1680 878,1687 881,1690 881,1690 881,1695 883,1697 883,1697 888,1704 890,1707 890,1707 890,1711 893,1714 893,1714 895,1716 898,1721 898,1721 898,1726 898,1726 900,1733 902,1733 902,1733 902,1738 902,1738 902,1742 905,1747 905,1747 905,1752 905,1752 905,1757 905,1757 905,1761 905,1761 905,1766 905,1766 905,1773 905,1773 905,1778 905,1778 905,1783 905,1783 905,1788 905,1788 905,1792 905,1797 905,1797 902,1800 902,1800 900,1802 900,1807 898,1809 893,1809 888,1812 888,1812 883,1812 883,1812 878,1812 878,1812 874,1812 874,1812 871,1814 871,1814 867,1814 867,1814 862,1814 859,1816 855,1816 855,1816 847,1816 847,1816 840,1816 840,1816 833,1816 833,1816 828,1814 828,1814 824,1814 821,1809 821,1809 816,1807 816,1807 812,1807 812,1807 809,1802 809,1802 804,1800 804,1800 800,1795 800,1795 797,1792 797,1792 793,1792 790,1790 788,1788 785,1785 785,1785 783,1783 783,1783 781,1781 776,1778 773,1776 771,1771 769,1769 766,1764 764,1761 762,1757 762,1757 759,1754 754,1749 752,1747 752,1742 752,1740 750,1738 750,1738 745,1735 740,1730 740,1728 740,1728 738,1723 733,1721 733,1718 733,1718 731,1716 731,1711 726,1709 726,1709 723,1707 723,1707 721,1702 719,1699 716,1697 711,1692 709,1690 709,1690 707,1685 704,1683 702,1680 697,1676 697,1673 697,1673 692,1671 692,1666 692,1666 690,1664 690,1664 688,1661 685,1659 685,1659 683,1656 680,1654 680,1652 676,1649 676,1649 676,1645 673,1642 668,1637 668,1637 666,1635 666,1633 666,1630 664,1628 661,1625 661,1623 661,1621 659,1618 659,1618 659,1613 659,1613 654,1609 652,1606 652,1604 652,1602 647,1599 647,1594 647,1594 645,1592 642,1590 642,1590 640,1585 640,1582 640,1582 640,1578 637,1573 637,1573 635,1568 635,1568 633,1566 633,1563 633,1561 630,1559 630,1559 630,1554 626,1549 626,1544 623,1542 623,1537 618,1535 618,1532 618,1532 616,1525 616,1523 616,1523 614,1520 611,1518 611,1516 611,1516 609,1513 609,1513 604,1511 602,1509 602,1506 597,1504 595,1501 592,1499 587,1494 585,1492 583,1489 583,1489 580,1487 580,1487 578,1485 575,1482 571,1480 571,1480 564,1477 564,1477 561,1475 561,1475 556,1475 556,1475 552,1475 552,1475 547,1475 544,1477 544,1477 540,1477 537,1480 537,1480 532,1482 544,1494" stroke="#f8691c" stroke-width="5" /></svg>