<?xml version="1.0" encoding="utf-8" ?>
<svg baseProfile="tiny" height="2048" version="1.2" width="2048" xmlns="http://www.w3.org/2000/svg" xmlns:ev="http://www.w3.org/2001/xml-events" xmlns:xlink="http://www.w3.org/1999/xlink"><defs /><polygon fill="none" points="1020,1372 1018,1372 1017,1372 1017,1372 1014,1372 1014,1372 1012,1372 1012,1372 1010,1372 1007,1372 1007,1372 1005,1374 1004,1375 1004,1375 1001,1375 1000,1376 999,1376 999,1376 997,1376 995,1377 994,1378 993,1378 993,1378 989,1378 988,1378 988,1378 986,1378 985,1378 985,1378 981,1380 979,1380 977,1380 977,1380 975,1380 974,1380 974,1380 972,1380 972,1380 969,1380 969,1380 967,1380 966,1380 966,1380 963,1380 963,1380 961,1380 961,1380 957,1380 957,1380 954,1380 952,1380 950,1380 950,1380 949,1381 946,1381 945,1382 942,1382 940,1383 940,1383 939,1384 939,1384 937,1385 936,1385 936,1385 933,1387 933,1387 931,1388 930,1389 927,1390 927,1390 924,1390 921,1391 920,1393 919,1394 919,1394 917,1394 917,1394 913,1394 912,1395 912,1395 909,1396 909,1396 907,1397 906,1397 905,1399 904,1399 904,1399 902,1400 901,1401 901,1401 899,1401 898,1401 898,1401 896,1403 895,1403 894,1405 894,1405 893,1406 893,1406 892,1407 892,1409 892,1409 892,1412 892,1412 892,1414 892,1414 892,1418 892,1418 892,1420 892,1420 892,1422 892,1422 892,1425 892,1425 892,1427 892,1427 892,1430 892,1430 892,1432 892,1432 892,1434 892,1434 892,1437 892,1437 892,1439 892,1439 893,1440 895,1443 896,1444 898,1446 898,1446 899,1448 899,1448 900,1449 901,1450 904,1451 905,1452 906,1453 906,1453 907,1455 907,1455 908,1456 908,1456 911,1456 911,1456 912,1457 913,1458 914,1459 915,1461 917,1462 917,1462 918,1463 918,1463 919,1464 920,1465 920,1465 921,1468 923,1470 924,1471 925,1473 926,1474 927,1475 929,1476 929,1476 931,1477 931,1477 932,1479 932,1479 933,1480 933,1480 936,1481 936,1481 938,1482 938,1482 939,1483 939,1483 942,1483 942,1483 944,1483 944,1483 946,1484 946,1484 949,1484 951,1487 951,1487 955,1487 956,1488 956,1488 958,1488 958,1488 961,1489 963,1489 964,1490 964,1490 967,1492 969,1493 969,1493 972,1493 972,1493 974,1493 975,1494 975,1494 977,1494 977,1494 981,1495 982,1496 985,1496 987,1496 987,1496 989,1499 989,1499 992,1499 992,1499 994,1499 995,1500 995,1500 998,1500 999,1501 999,1501 1003,1502 1005,1502 1005,1502 1007,1502 1008,1504 1008,1504 1011,1504 1012,1505 1012,1505 1014,1505 1014,1505 1016,1506 1016,1506 1018,1507 1018,1507 1020,1510 1023,1511 1023,1511 1024,1513 1024,1513 1028,1514 1028,1514 1031,1514 1031,1514 1034,1516 1034,1516 1036,1516 1036,1516 1040,1516 1040,1516 1043,1516 1043,1516 1047,1516 1047,1516 1050,1516 1050,1516 1051,1514 1051,1514 1054,1514 1054,1514 1056,1513 1060,1511 1060,1511 1063,1510 1066,1510 1068,1510 1068,1510 1072,1510 1072,1510 1075,1510 1075,1510 1080,1510 1080,1510 1084,1510 1086,1510 1088,1510 1088,1510 1090,1508 1090,1508 1093,1508 1093,1508 1097,1508 1098,1507 1098,1507 1100,1506 1100,1506 1103,1506 1103,1506 1105,1505 1108,1504 1109,1502 1109,1502 1111,1501 1111,1501 1112,1500 1113,1499 1113,1499 1116,1499 1116,1499 1117,1498 1117,1498 1119,1496 1119,1496 1122,1496 1122,1496 1124,1495 1125,1494 1125,1494 1128,1494 1128,1494 1129,1493 1129,1493 1133,1492 1134,1490 1134,1490 1136,1489 1136,1489 1137,1488 1139,1487 1139,1487 1141,1486 1142,1484 1143,1483 1143,1483 1143,1481 1143,1481 1146,1480 1147,1479 1147,1477 1147,1477 1148,1475 1148,1475 1149,1474 1149,1473 1150,1471 1150,1469 1150,1469 1152,1467 1152,1467 1153,1464 1154,1463 1154,1461 1155,1458 1155,1458 1156,1457 1156,1455 1158,1453 1158,1453 1158,1451 1158,1450 1158,1450 1158,1448 1158,1448 1158,1445 1158,1445 1158,1443 1158,1442 1158,1442 1158,1439 1158,1439 1158,1437 1158,1437 1156,1436 1156,1434 1156,1434 1155,1432 1155,1431 1153,1430 1153,1428 1153,1428 1152,1426 1150,1426 1150,1426 1148,1426 1146,1425 1143,1422 1142,1421 1141,1420 1140,1419 1139,1418 1137,1416 1136,1415 1135,1414 1135,1414 1134,1413 1134,1411 1134,1411 1133,1409 1131,1409 1131,1409 1130,1408 1130,1406 1130,1405 1129,1402 1128,1401 1127,1400 1127,1399 1127,1399 1125,1395 1124,1395 1124,1395 1124,1393 1124,1393 1123,1391 1123,1390 1121,1388 1121,1388 1119,1387 1118,1384 1118,1384 1117,1383 1117,1382 1116,1382 1115,1381 1113,1380 1113,1380 1111,1377 1110,1377 1110,1377 1108,1377 1108,1377 1103,1377 1102,1377 1100,1376 1099,1376 1099,1376 1097,1376 1097,1376 1093,1376 1093,1376 1090,1376 1088,1376 1086,1376 1085,1375 1085,1375 1081,1375 1079,1374 1078,1374 1078,1374 1075,1374 1075,1374 1073,1374 1073,1374 1072,1372 1072,1372 1069,1372 1067,1372 1065,1372 1065,1372 1062,1372 1060,1372 1059,1372 1059,1372 1056,1372 1056,1372 1054,1372 1053,1372 1053,1372 1050,1372 1050,1372 1048,1372 1048,1372 1045,1372 1043,1372 1042,1372 1040,1372 1040,1372 1036,1372 1036,1372 1034,1372 1034,1372 1031,1372 1031,1372 1029,1372 1029,1372 1026,1372 1026,1372 1024,1372 1023,1372 1018,1372 1020,1372" stroke="#f8691c" stroke-width="5" /><polygon fill="none" points="283,1129 273,1129 268,1129 263,1129 259,1129 259,1129 249,1129 240,1129 235,1124 230,1119 225,1119 220,1119 220,1119 211,1119 206,1119 201,1119 201,1119 192,1119 187,1119 182,1119 182,1119 168,1119 163,1119 163,1119 154,1124 149,1124 149,1124 149,1133 144,1138 139,1138 139,1138 135,1143 135,1143 125,1157 125,1157 120,1162 120,1162 120,1172 120,1172 115,1176 111,1176 106,1181 106,1181 101,1191 96,1196 96,1196 96,1205 96,1205 96,1215 92,1215 92,1215 92,1224 92,1224 87,1234 87,1234 87,1243 87,1243 87,1253 82,1253 82,1253 82,1262 82,1262 82,1272 82,1272 82,1281 82,1281 82,1291 82,1291 82,1301 82,1301 77,1310 77,1310 73,1320 73,1320 73,1329 68,1329 68,1329 68,1339 68,1339 68,1348 68,1348 68,1358 68,1358 68,1367 73,1372 87,1382 101,1386 111,1391 111,1391 120,1396 120,1396 130,1401 130,1401 139,1401 139,1401 154,1405 154,1405 163,1405 163,1405 173,1405 173,1405 182,1405 182,1405 192,1405 192,1405 201,1405 201,1405 211,1405 211,1405 225,1405 225,1405 235,1405 235,1405 249,1405 249,1405 259,1401 263,1396 263,1396 273,1396 273,1396 283,1396 283,1396 292,1391 292,1382 292,1382 302,1382 302,1382 311,1382 311,1382 316,1377 316,1377 321,1367 321,1367 325,1363 325,1363 330,1358 330,1353 330,1348 335,1343 335,1343 340,1334 345,1329 345,1324 345,1324 349,1315 354,1310 354,1310 359,1305 359,1305 364,1296 364,1291 368,1286 373,1281 373,1281 373,1272 378,1267 378,1267 378,1258 378,1248 378,1248 383,1234 383,1234 387,1229 387,1219 387,1215 387,1210 387,1210 387,1200 387,1196 387,1191 387,1191 387,1181 383,1172 378,1162 373,1157 368,1153 364,1153 364,1153 364,1143 354,1133 354,1133 349,1129 349,1129 345,1124 340,1124 335,1124 335,1124 325,1124 321,1124 316,1124 316,1124 306,1124 297,1119 297,1114 297,1114 287,1114 283,1114 278,1114 278,1114 263,1110 259,1110 283,1129" stroke="#f8691c" stroke-width="5" /><polygon fill="none" points="764,904 779,904 793,904 807,904 822,904 831,909 841,909 850,914 850,914 860,914 860,914 869,914 869,914 879,914 879,914 889,909 893,904 893,904 898,900 898,900 903,895 903,895 908,890 908,890 908,881 908,876 908,876 908,866 908,861 908,857 908,857 908,847 903,842 898,838 898,838 893,828 889,823 889,819 884,814 879,809 874,809 869,809 869,804 865,799 865,799 865,790 865,790 855,780 850,776 846,766 846,766 836,761 831,756 831,756 827,752 827,747 827,747 822,742 822,742 817,733 812,733 812,728 812,723 807,723 807,723 807,709 807,709 803,704 803,704 798,699 798,699 793,690 793,685 793,675 788,675 788,675 788,661 784,652 784,647 784,642 784,642 779,637 779,637 779,628 779,623 779,623 774,613 774,609 774,599 774,599 774,585 774,585 774,570 774,566 774,566 774,556 774,551 774,547 774,547 774,537 774,532 769,527 769,527 764,518 764,513 764,508 760,504 760,504 755,499 755,494 755,489 755,489 750,484 750,484 750,475 750,470 745,470 745,465 745,465 745,456 741,451 741,446 736,437 731,437 726,427 726,427 722,422 717,422 712,413 707,413 702,408 698,403 693,403 693,403 688,394 688,389 688,389 683,384 679,384 674,380 674,375 669,370 669,370 659,370 655,370 650,370 650,370 636,370 631,370 621,375 617,380 612,380 607,384 607,384 602,389 597,394 593,394 588,399 583,403 578,403 574,403 569,403 564,408 555,413 550,413 550,413 545,418 540,418 535,418 535,418 531,422 531,422 526,432 521,432 516,437 512,437 512,437 502,437 497,437 492,437 492,437 483,437 478,437 473,437 473,437 464,437 454,437 454,437 440,437 435,437 426,437 421,437 416,437 416,437 407,442 397,442 397,442 383,446 378,446 378,446 373,451 368,456 364,461 364,461 359,465 359,465 354,470 354,480 354,480 349,484 345,484 345,494 340,494 340,494 335,499 335,499 325,499 321,499 321,499 316,504 316,504 306,504 297,508 287,508 283,508 278,508 278,508 268,508 268,508 263,513 259,513 259,513 249,513 244,513 240,513 240,513 230,513 225,513 220,513 220,513 216,508 211,508 206,508 206,508 201,504 197,499 187,499 182,499 173,499 168,499 163,499 158,504 158,504 154,508 149,508 149,508 144,513 144,513 139,518 135,523 135,523 130,532 130,532 125,542 125,542 120,551 120,551 120,561 120,561 115,570 115,570 115,580 115,580 115,589 115,589 115,599 115,599 115,609 115,609 115,618 115,628 115,628 115,637 115,637 115,647 115,656 115,656 115,666 115,666 120,675 120,675 120,685 120,685 120,694 130,699 130,699 130,709 130,709 135,718 135,718 135,728 144,733 144,733 144,742 149,747 149,747 154,756 154,756 158,766 158,766 163,771 163,771 168,776 168,776 178,780 182,785 182,785 192,795 192,795 201,795 206,799 206,799 216,804 216,804 216,814 211,819 206,823 201,828 201,828 192,828 187,833 182,838 182,838 182,847 182,847 182,861 182,861 182,876 182,876 182,885 192,890 192,890 197,895 201,904 206,909 211,914 211,914 225,914 225,914 235,919 235,919 244,919 244,919 254,919 254,919 263,914 263,914 263,900 263,895 263,895 263,885 263,881 263,876 263,876 263,866 263,857 263,857 268,847 273,842 273,842 283,842 283,842 292,842 302,842 302,842 311,842 311,842 321,842 330,847 335,852 340,857 340,857 349,861 349,861 359,871 359,871 364,881 364,881 368,885 373,890 378,895 383,900 383,900 392,909 397,919 402,924 402,924 407,928 407,928 411,933 416,938 421,943 426,947 430,952 435,957 445,966 454,971 454,971 469,981 469,981 483,986 483,986 492,995 492,995 502,995 502,995 512,1000 512,1000 516,1005 516,1005 526,1009 531,1014 531,1014 540,1014 540,1014 550,1014 550,1014 555,1009 559,1005 559,1000 559,1000 569,995 569,986 574,981 574,976 574,976 574,966 574,962 574,957 574,957 574,943 574,938 574,928 574,924 574,914 574,914 574,904 574,900 574,895 569,895 569,895 564,890 559,881 555,881 555,876 550,871 550,871 545,857 545,857 540,847 540,842 540,838 540,838 540,828 540,823 540,819 540,819 540,809 540,804 540,799 540,799 545,790 545,785 545,780 545,780 555,771 555,766 559,761 559,761 564,756 564,766 569,771 569,771 569,780 569,780 574,785 574,785 574,799 574,799 578,804 578,804 578,814 578,814 583,823 588,828 588,838 593,842 593,852 593,852 597,861 602,866 602,866 607,871 607,871 617,881 621,885 621,885 631,890 636,895 636,895 640,900 640,900 650,900 650,900 659,900 669,900 669,900 679,900 679,900 688,900 688,900 698,900 698,900 707,900 707,900 717,900 717,900 726,900 726,900 736,900 736,900 750,900 764,904" stroke="#f8691c" stroke-width="5" /><polygon fill="none" points="1709,1682 1714,1673 1709,1663 1700,1654 1700,1654 1695,1649 1695,1644 1690,1639 1690,1639 1685,1635 1685,1635 1676,1630 1671,1630 1671,1625 1662,1625 1657,1620 1652,1620 1647,1620 1647,1620 1638,1620 1633,1620 1628,1620 1623,1620 1623,1620 1614,1620 1609,1620 1604,1620 1604,1620 1595,1620 1590,1620 1585,1620 1585,1620 1571,1620 1571,1620 1571,1630 1571,1630 1566,1639 1566,1639 1566,1654 1566,1654 1561,1658 1561,1658 1557,1668 1557,1668 1557,1677 1557,1677 1557,1687 1557,1687 1557,1697 1557,1697 1557,1706 1557,1706 1557,1716 1557,1716 1557,1725 1557,1725 1557,1740 1557,1740 1557,1749 1557,1749 1561,1759 1561,1759 1561,1768 1561,1768 1561,1778 1561,1778 1566,1782 1571,1787 1571,1787 1576,1792 1576,1792 1585,1792 1585,1792 1595,1792 1595,1792 1604,1792 1604,1792 1619,1792 1619,1792 1623,1787 1623,1787 1628,1782 1633,1778 1633,1778 1638,1773 1638,1773 1647,1768 1647,1768 1657,1759 1657,1759 1666,1759 1671,1754 1676,1749 1681,1744 1681,1740 1681,1740 1685,1735 1690,1730 1695,1720 1695,1716 1695,1716 1700,1706 1700,1706 1705,1701 1705,1697 1705,1697 1714,1673 1709,1682" stroke="#f8691c" stroke-width="5" /><polygon fill="none" points="2029,370 2020,370 2015,370 2005,370 2000,370 2000,370 1991,370 1991,370 1986,365 1977,360 1972,356 1962,356 1962,356 1953,356 1953,356 1943,356 1943,356 1934,356 1929,356 1924,356 1919,360 1915,370 1910,375 1910,384 1910,384 1910,399 1910,399 1910,408 1910,408 1910,418 1915,422 1919,427 1924,432 1924,432 1934,437 1934,437 1948,446 1957,446 1967,451 1977,456 1981,461 1991,465 1996,470 1996,470 2000,475 2005,480 2005,480 2010,489 2010,499 2010,499 2020,499 2020,499 2034,494 2034,489 2039,484 2039,484 2039,475 2039,470 2039,470 2042,461 2042,461 2042,456 2042,451 2042,446 2042,446 2042,437 2042,432 2042,422 2042,422 2042,408 2042,408 2042,394 2042,389 2042,380 2043,375 2029,370" stroke="#f8691c" stroke-width="5" /></svg>