<?xml version="1.0" encoding="utf-8" ?>
<svg baseProfile="tiny" height="2048" version="1.2" width="2048" xmlns="http://www.w3.org/2000/svg" xmlns:ev="http://www.w3.org/2001/xml-events" xmlns:xlink="http://www.w3.org/1999/xlink"><defs /><polygon fill="none" points="1193,1050 1186,1045 1186,1043 1186,1043 1184,1041 1184,1041 1181,1038 1179,1036 1179,1036 1177,1031 1177,1031 1174,1029 1174,1029 1172,1024 1172,1024 1170,1022 1170,1022 1165,1022 1165,1022 1158,1019 1158,1019 1153,1017 1150,1014 1150,1014 1146,1014 1146,1014 1143,1012 1143,1012 1139,1012 1136,1012 1131,1010 1131,1010 1127,1010 1127,1010 1122,1010 1119,1007 1117,1007 1112,1007 1110,1005 1110,1005 1103,1003 1103,1003 1098,1000 1098,1000 1093,1000 1093,1000 1086,998 1081,995 1076,995 1074,993 1074,993 1072,991 1072,991 1067,991 1067,991 1062,991 1057,991 1057,991 1050,988 1045,986 1045,986 1041,986 1038,986 1038,986 1034,986 1034,986 1029,986 1029,986 1024,986 1022,986 1019,986 1019,986 1014,986 1014,986 1010,986 1010,986 1005,986 1000,986 1000,986 995,986 995,986 991,986 991,986 986,986 986,986 981,986 981,986 976,986 976,986 972,988 969,991 969,991 964,991 962,991 962,991 960,993 960,993 957,995 957,995 952,998 952,998 948,1000 948,1000 943,1000 940,1003 938,1005 938,1005 936,1007 936,1007 929,1012 926,1014 921,1019 919,1022 917,1024 917,1024 914,1029 914,1029 912,1031 912,1034 912,1034 909,1036 909,1038 907,1041 907,1041 907,1045 905,1048 905,1053 902,1055 902,1057 902,1057 902,1062 902,1062 902,1067 902,1067 902,1072 902,1072 902,1076 902,1076 902,1081 902,1081 902,1086 902,1086 902,1091 902,1091 902,1096 902,1096 902,1100 902,1100 902,1105 902,1110 902,1110 907,1112 907,1112 907,1117 907,1117 909,1119 909,1119 912,1122 912,1122 914,1127 914,1127 917,1129 917,1131 917,1131 919,1134 921,1136 921,1136 924,1139 924,1141 926,1143 926,1146 926,1146 929,1148 929,1153 931,1155 931,1155 931,1160 931,1160 933,1165 936,1167 938,1172 938,1174 943,1177 943,1177 945,1181 945,1181 948,1186 948,1186 950,1189 952,1191 952,1191 955,1193 955,1193 957,1196 960,1198 960,1198 962,1203 962,1203 967,1205 967,1205 969,1210 974,1215 979,1215 981,1217 983,1220 986,1222 986,1222 991,1224 993,1227 998,1229 998,1229 1000,1232 1000,1232 1005,1234 1010,1236 1010,1239 1010,1239 1012,1241 1017,1244 1017,1244 1019,1248 1019,1248 1024,1251 1024,1253 1024,1253 1029,1255 1029,1255 1034,1258 1034,1258 1038,1260 1043,1263 1045,1265 1048,1267 1048,1267 1053,1267 1053,1267 1057,1267 1060,1270 1060,1270 1067,1272 1067,1272 1072,1275 1072,1275 1076,1277 1081,1277 1081,1277 1088,1277 1088,1277 1096,1277 1098,1282 1098,1282 1103,1282 1103,1282 1110,1282 1110,1282 1117,1282 1117,1282 1122,1282 1122,1282 1127,1282 1127,1282 1131,1284 1131,1284 1136,1284 1136,1284 1143,1284 1143,1284 1150,1289 1150,1289 1155,1289 1155,1289 1160,1289 1160,1289 1165,1289 1165,1289 1170,1289 1170,1289 1174,1289 1174,1289 1179,1289 1179,1289 1184,1289 1189,1289 1189,1289 1196,1289 1201,1289 1201,1289 1205,1289 1208,1286 1208,1286 1212,1286 1215,1284 1217,1282 1217,1282 1220,1279 1220,1279 1222,1277 1222,1277 1227,1275 1227,1275 1232,1272 1234,1270 1239,1270 1241,1267 1244,1265 1244,1265 1248,1265 1248,1265 1253,1265 1255,1263 1255,1263 1260,1263 1260,1263 1265,1260 1265,1260 1267,1258 1267,1258 1277,1255 1277,1255 1279,1253 1282,1251 1282,1251 1284,1248 1286,1246 1289,1244 1289,1244 1291,1241 1291,1241 1294,1236 1294,1236 1296,1234 1296,1234 1298,1229 1298,1229 1301,1227 1301,1227 1303,1220 1303,1220 1303,1215 1303,1215 1303,1210 1303,1210 1303,1205 1303,1205 1303,1201 1303,1201 1301,1198 1301,1193 1301,1193 1296,1189 1296,1189 1296,1184 1296,1184 1296,1179 1294,1177 1291,1174 1289,1172 1289,1172 1286,1170 1286,1170 1286,1165 1284,1162 1284,1162 1282,1160 1282,1160 1279,1153 1279,1153 1277,1150 1275,1148 1275,1148 1272,1146 1270,1143 1267,1141 1267,1141 1265,1139 1263,1136 1260,1134 1260,1134 1258,1131 1255,1129 1253,1127 1251,1124 1248,1122 1246,1119 1244,1117 1241,1115 1239,1112 1239,1112 1236,1110 1234,1110 1232,1108 1229,1105 1229,1105 1224,1103 1222,1100 1220,1098 1217,1096 1212,1093 1210,1088 1208,1081 1208,1081 1203,1079 1198,1074 1196,1074 1189,1067 1184,1062 1184,1062 1181,1057 1181,1057 1179,1053 1179,1053 1179,1048 1179,1048 1179,1043 1193,1050" stroke="#f8691c" stroke-width="5" /><polygon fill="none" points="1038,373 1034,375 1031,375 1031,375 1026,375 1026,375 1019,380 1019,380 1014,382 1012,385 1012,385 1007,385 1007,385 1005,387 1005,387 1003,389 998,392 995,394 995,394 988,396 988,399 988,399 983,401 981,401 981,404 979,406 979,406 974,406 974,408 974,408 972,411 972,411 967,411 964,416 962,416 960,418 957,420 952,423 952,423 950,425 950,425 948,428 945,430 943,432 940,432 938,435 936,437 936,437 933,439 931,442 929,444 929,444 926,447 924,449 924,449 921,451 921,451 919,454 919,454 917,456 917,456 914,461 914,461 912,463 912,463 909,466 909,466 909,470 907,473 907,473 905,475 902,475 902,475 902,480 902,480 900,485 898,487 898,487 895,492 895,497 895,497 895,501 890,504 890,506 890,506 890,511 890,511 890,516 890,516 890,521 890,521 895,525 900,525 905,528 905,528 909,528 909,528 914,528 914,528 919,528 919,528 924,528 924,528 931,528 931,528 938,528 938,528 945,528 945,528 952,528 952,528 960,528 960,528 964,528 964,528 969,528 969,528 974,528 974,528 979,528 979,528 983,528 983,528 988,528 988,528 993,528 995,530 995,530 1000,530 1005,532 1005,532 1010,532 1010,532 1017,532 1017,532 1024,532 1024,532 1029,532 1029,532 1034,532 1034,532 1038,532 1038,532 1043,532 1043,532 1048,532 1048,532 1053,532 1053,532 1057,532 1057,532 1062,532 1062,532 1067,532 1067,532 1072,532 1072,532 1076,532 1076,532 1081,532 1084,528 1088,528 1088,528 1093,528 1096,525 1096,525 1100,523 1100,523 1105,523 1105,523 1108,521 1108,521 1112,521 1112,521 1117,518 1117,518 1122,518 1122,518 1124,516 1127,513 1127,513 1131,511 1131,511 1136,511 1141,506 1141,506 1146,504 1146,504 1150,501 1150,501 1155,499 1160,499 1160,499 1167,499 1167,499 1170,497 1174,497 1174,497 1177,494 1181,492 1181,492 1189,492 1193,490 1193,490 1201,487 1201,487 1205,487 1208,485 1208,485 1212,485 1212,485 1215,482 1215,482 1220,482 1222,480 1222,480 1227,480 1227,480 1234,478 1234,478 1236,475 1236,475 1241,475 1246,475 1248,473 1248,473 1251,468 1251,468 1255,468 1255,468 1260,468 1260,468 1263,466 1265,463 1270,461 1270,461 1275,461 1275,461 1277,459 1277,459 1279,456 1279,456 1284,454 1284,454 1291,454 1294,451 1294,451 1298,449 1301,447 1301,447 1306,447 1306,447 1308,444 1308,444 1313,444 1315,442 1317,439 1322,439 1325,437 1325,437 1327,435 1327,435 1329,432 1329,432 1334,432 1334,432 1337,428 1341,425 1344,423 1348,420 1348,420 1351,416 1351,416 1356,413 1358,411 1358,411 1360,408 1363,406 1363,406 1365,404 1365,404 1370,404 1370,404 1372,401 1372,401 1377,401 1380,399 1382,396 1382,396 1387,396 1387,396 1391,394 1394,392 1399,389 1399,389 1401,387 1401,387 1403,385 1403,385 1403,380 1403,380 1403,375 1403,375 1403,370 1403,370 1401,368 1401,368 1394,365 1389,363 1389,363 1387,361 1387,361 1384,358 1382,356 1382,356 1380,351 1380,351 1377,346 1375,342 1375,342 1372,337 1370,334 1370,334 1368,332 1368,332 1363,332 1358,330 1358,330 1351,330 1351,330 1346,330 1346,330 1341,330 1339,327 1339,327 1334,327 1332,327 1332,327 1327,327 1327,327 1322,327 1322,327 1317,327 1315,327 1313,327 1313,327 1308,327 1308,327 1303,327 1303,327 1298,327 1298,327 1294,327 1294,327 1289,327 1289,327 1284,330 1284,330 1277,330 1275,330 1272,330 1272,330 1270,332 1265,332 1265,332 1260,332 1260,332 1255,334 1253,334 1251,337 1251,337 1244,337 1244,337 1241,339 1236,342 1234,342 1234,342 1232,344 1232,344 1229,349 1227,351 1227,351 1222,354 1217,356 1215,358 1210,361 1210,361 1205,361 1205,361 1203,363 1201,365 1201,365 1196,365 1193,368 1193,368 1191,370 1191,370 1186,370 1186,370 1184,373 1179,373 1177,373 1174,375 1174,375 1170,375 1170,375 1165,375 1165,375 1162,377 1162,377 1158,377 1155,377 1153,380 1153,380 1148,380 1148,380 1143,380 1143,380 1139,380 1134,382 1134,382 1129,382 1124,385 1124,385 1119,385 1117,385 1117,385 1112,385 1112,385 1108,385 1108,385 1103,385 1103,385 1098,385 1098,385 1093,385 1093,385 1088,385 1088,385 1084,385 1084,385 1079,385 1079,385 1074,385 1074,385 1069,385 1069,385 1065,385 1060,385 1057,385 1053,385 1053,385 1045,385 1045,385 1038,385 1038,385 1031,385 1031,385 1031,380 1031,380 1034,377 1038,373" stroke="#f8691c" stroke-width="5" /><polygon fill="none" points="766,354 757,351 752,351 752,351 747,351 742,354 742,354 742,358 742,358 740,363 740,363 740,370 740,370 738,373 735,375 733,377 733,377 728,377 726,377 726,377 721,377 719,380 719,380 714,380 714,380 709,382 707,382 707,382 702,385 702,385 697,385 695,387 692,389 690,392 688,394 685,396 683,399 683,399 678,401 676,404 671,406 668,408 668,408 664,408 664,408 659,411 659,411 654,413 654,413 652,416 649,416 647,418 645,420 645,420 642,423 640,425 640,425 637,428 637,428 635,432 633,435 633,435 633,439 628,444 626,447 626,447 626,451 626,451 623,456 623,456 621,459 621,459 618,463 618,463 618,468 618,468 616,473 616,473 614,478 614,478 611,480 611,480 609,485 609,487 609,487 606,490 606,492 606,492 606,497 606,497 606,504 606,506 604,509 604,511 604,511 604,516 604,516 604,521 604,521 604,525 604,525 602,530 602,530 602,535 602,535 602,540 602,540 602,544 602,544 602,549 602,554 602,554 604,556 604,556 606,559 609,561 614,564 616,566 618,568 623,571 626,573 628,575 630,578 633,580 633,580 637,580 637,580 642,580 642,580 647,580 649,578 649,578 654,575 654,575 659,573 664,571 664,571 666,566 668,564 668,564 671,561 671,561 676,556 676,556 680,552 680,552 683,549 683,549 688,547 688,547 690,544 690,544 692,540 692,540 695,537 697,535 697,535 700,532 700,532 704,530 704,530 707,525 707,525 711,523 711,523 714,521 714,521 716,518 721,516 721,516 723,511 723,511 723,506 723,506 728,504 731,501 731,501 733,499 733,499 735,494 735,494 740,492 740,487 740,487 742,485 742,485 745,482 745,482 745,478 745,478 750,475 750,475 750,470 752,468 752,468 752,463 752,459 752,459 754,456 754,456 754,451 754,451 757,449 759,444 759,444 759,439 759,439 762,435 764,430 764,430 766,428 769,423 769,423 773,420 773,420 776,416 776,416 781,413 783,408 783,408 788,406 790,404 793,401 793,401 795,399 797,396 797,396 800,394 800,394 800,389 800,389 800,385 800,385 800,380 800,380 800,375 800,375 800,370 800,370 800,365 800,365 800,361 800,361 800,354 800,354 797,351 797,351 793,349 793,349 766,354" stroke="#f8691c" stroke-width="5" /><polygon fill="none" points="833,855 826,852 824,852 816,852 816,852 809,852 802,852 802,852 797,852 793,852 793,852 788,850 785,850 785,850 778,850 778,850 773,850 773,850 764,850 764,850 759,850 759,850 754,850 754,850 750,850 745,847 745,847 740,845 740,845 735,845 731,845 728,845 726,845 726,845 721,845 721,845 716,845 714,843 714,843 709,843 707,843 702,843 702,843 695,843 695,843 690,843 688,843 688,843 683,843 683,843 678,843 673,843 668,843 664,843 664,843 659,843 659,843 654,843 654,843 649,843 649,843 645,843 645,843 640,845 640,845 633,847 630,847 628,847 628,847 623,847 618,847 618,847 614,847 614,847 609,850 609,850 604,852 599,852 597,855 592,857 587,857 585,859 585,859 580,862 580,862 578,864 578,864 573,864 571,864 568,867 568,867 564,867 564,867 559,867 556,869 556,869 549,869 542,871 542,871 535,871 532,871 530,871 530,871 525,871 525,871 521,871 516,871 513,871 509,871 509,871 501,871 501,871 497,871 494,871 492,871 492,871 490,874 490,874 485,876 480,876 478,878 478,878 473,878 473,878 468,881 468,881 466,883 466,883 461,883 459,886 459,886 456,888 456,888 451,890 449,893 449,893 447,895 447,895 444,898 444,898 439,902 439,902 437,905 437,905 435,909 435,909 435,914 435,917 430,919 430,921 428,924 425,929 423,933 420,936 420,936 418,943 418,943 418,948 416,950 416,950 416,955 413,957 411,960 411,960 411,964 408,969 408,969 406,972 406,972 404,976 401,979 399,981 399,981 396,983 396,983 396,988 392,991 389,993 387,995 385,998 382,1000 380,1005 380,1005 377,1007 375,1010 373,1012 370,1014 370,1014 368,1019 365,1022 363,1024 363,1024 361,1026 361,1026 356,1026 356,1029 356,1029 349,1031 349,1031 346,1034 346,1034 339,1034 337,1036 337,1036 332,1036 332,1036 330,1038 330,1038 325,1041 325,1041 320,1043 315,1043 311,1045 311,1048 311,1048 306,1048 303,1050 303,1050 299,1050 296,1050 294,1053 292,1055 292,1055 289,1057 289,1057 284,1060 284,1060 282,1062 282,1062 275,1062 270,1065 270,1065 265,1069 265,1069 260,1069 258,1072 258,1072 253,1072 251,1074 251,1074 244,1076 241,1079 237,1079 237,1079 234,1081 232,1084 232,1084 227,1084 222,1084 222,1084 220,1086 213,1091 213,1091 208,1093 206,1096 203,1098 201,1098 201,1098 196,1103 194,1105 191,1108 191,1108 187,1110 182,1112 182,1112 179,1115 179,1115 175,1117 175,1117 170,1117 170,1117 167,1122 167,1122 165,1124 160,1127 158,1129 156,1131 151,1136 151,1136 146,1139 146,1139 141,1141 141,1141 139,1143 139,1143 132,1146 129,1148 127,1150 127,1150 122,1153 120,1155 117,1158 113,1158 113,1158 108,1162 105,1165 103,1165 101,1167 98,1170 98,1170 93,1172 93,1172 91,1174 89,1177 86,1179 84,1179 84,1179 82,1184 77,1186 77,1186 74,1189 72,1191 70,1193 67,1196 65,1198 62,1201 60,1203 60,1203 60,1208 60,1208 60,1212 60,1212 60,1217 60,1222 60,1222 60,1227 60,1227 60,1232 62,1236 65,1239 65,1239 70,1246 72,1248 77,1253 79,1255 82,1258 82,1258 84,1260 86,1263 91,1265 91,1265 96,1265 98,1267 103,1270 105,1272 105,1272 110,1275 115,1279 117,1282 117,1282 124,1284 124,1284 127,1286 127,1286 129,1289 129,1289 136,1291 136,1291 139,1294 144,1294 144,1294 146,1296 146,1296 153,1301 153,1301 158,1301 163,1301 163,1301 165,1303 165,1303 172,1306 172,1306 177,1308 177,1308 184,1308 184,1308 194,1308 198,1308 203,1308 203,1308 208,1308 208,1308 213,1310 213,1310 218,1310 222,1313 225,1315 225,1315 229,1317 229,1317 229,1322 232,1325 237,1329 241,1334 244,1339 246,1341 256,1348 265,1356 265,1356 272,1360 272,1360 275,1363 277,1365 282,1370 282,1370 284,1372 287,1377 287,1377 292,1382 294,1384 296,1387 299,1389 301,1391 303,1394 308,1399 311,1401 313,1403 313,1403 318,1406 318,1406 320,1408 320,1408 327,1408 327,1408 334,1411 339,1415 339,1415 346,1415 346,1415 351,1418 351,1418 358,1422 358,1422 365,1422 365,1422 373,1422 373,1422 377,1422 377,1422 382,1422 385,1425 385,1425 394,1425 394,1425 396,1427 396,1427 404,1427 404,1427 413,1427 413,1427 416,1430 416,1430 420,1432 425,1432 430,1434 430,1434 437,1437 437,1437 442,1437 442,1437 447,1437 449,1439 449,1439 456,1439 459,1442 459,1442 466,1442 466,1444 466,1444 470,1444 470,1444 475,1444 475,1444 480,1446 480,1446 485,1446 487,1449 487,1449 492,1449 492,1449 494,1451 494,1451 499,1451 499,1451 504,1453 504,1453 511,1456 513,1458 518,1458 518,1458 523,1458 523,1458 528,1458 530,1461 530,1461 535,1461 535,1461 537,1463 537,1463 544,1463 544,1463 556,1465 556,1465 561,1465 561,1465 566,1465 568,1463 571,1461 573,1458 575,1456 575,1456 575,1451 575,1451 575,1446 575,1446 575,1442 575,1442 578,1439 578,1439 578,1434 578,1434 578,1430 578,1430 578,1425 583,1420 583,1420 585,1415 585,1415 587,1411 587,1411 590,1408 592,1406 592,1406 595,1403 595,1403 599,1403 602,1401 602,1401 606,1399 606,1399 616,1399 621,1399 621,1399 626,1399 630,1396 630,1396 637,1396 642,1396 647,1396 652,1396 657,1396 661,1396 661,1396 666,1396 666,1396 671,1396 678,1396 683,1396 683,1396 692,1396 692,1396 697,1396 697,1396 707,1396 711,1396 716,1396 723,1396 731,1396 735,1396 740,1396 745,1399 745,1399 750,1399 750,1399 752,1401 754,1403 759,1406 762,1408 762,1408 764,1413 766,1415 769,1418 769,1418 773,1420 776,1422 776,1422 783,1425 783,1425 788,1427 788,1427 793,1427 797,1430 802,1432 802,1432 809,1434 814,1434 814,1434 821,1437 821,1437 826,1439 826,1439 828,1442 828,1442 833,1442 836,1444 838,1446 843,1449 843,1449 845,1451 850,1453 850,1453 852,1456 857,1458 857,1458 864,1463 869,1463 869,1463 874,1465 874,1465 878,1468 878,1468 886,1468 890,1473 890,1473 895,1473 898,1475 902,1475 902,1477 902,1477 909,1480 914,1480 924,1484 924,1484 929,1487 929,1487 936,1487 936,1487 940,1489 940,1489 948,1492 950,1494 950,1494 955,1494 960,1496 960,1496 964,1499 967,1501 967,1501 972,1504 976,1506 979,1508 979,1508 988,1516 991,1518 991,1518 995,1518 1000,1523 1000,1523 1005,1525 1005,1525 1010,1530 1010,1530 1014,1535 1014,1535 1017,1537 1022,1542 1024,1544 1026,1547 1026,1547 1031,1549 1031,1549 1036,1549 1038,1551 1041,1554 1045,1554 1045,1556 1045,1556 1050,1558 1050,1558 1055,1561 1055,1561 1060,1561 1060,1561 1062,1563 1062,1563 1067,1563 1072,1566 1072,1566 1076,1566 1076,1566 1081,1566 1081,1566 1086,1566 1086,1566 1091,1568 1091,1568 1096,1568 1096,1568 1100,1568 1100,1568 1108,1568 1108,1568 1115,1568 1115,1568 1119,1568 1119,1568 1124,1568 1124,1568 1129,1568 1129,1568 1134,1568 1134,1568 1139,1568 1139,1568 1143,1568 1143,1568 1148,1568 1148,1568 1153,1568 1153,1568 1158,1568 1158,1568 1162,1568 1162,1568 1167,1568 1167,1568 1172,1568 1172,1568 1177,1568 1177,1568 1181,1568 1181,1568 1186,1568 1191,1568 1191,1568 1196,1566 1196,1566 1201,1566 1201,1566 1205,1566 1205,1566 1210,1561 1210,1561 1215,1561 1215,1561 1220,1558 1220,1558 1227,1556 1232,1554 1232,1554 1236,1554 1236,1554 1241,1554 1241,1554 1246,1554 1251,1551 1255,1549 1255,1549 1260,1549 1260,1549 1265,1547 1265,1547 1270,1544 1272,1542 1272,1542 1277,1539 1282,1539 1284,1537 1284,1537 1289,1535 1289,1535 1294,1532 1294,1532 1298,1530 1301,1527 1306,1525 1308,1523 1308,1523 1313,1523 1315,1520 1317,1518 1317,1518 1320,1516 1320,1516 1322,1513 1322,1513 1325,1511 1325,1511 1329,1508 1334,1506 1334,1506 1339,1506 1339,1506 1344,1504 1344,1504 1346,1499 1346,1499 1348,1496 1348,1496 1348,1492 1351,1489 1351,1489 1351,1484 1353,1482 1353,1482 1356,1480 1356,1480 1356,1475 1356,1475 1358,1473 1358,1473 1358,1468 1358,1468 1358,1463 1358,1463 1358,1456 1358,1456 1363,1453 1363,1449 1363,1449 1363,1444 1363,1444 1365,1439 1365,1439 1365,1434 1365,1434 1365,1430 1365,1430 1365,1425 1365,1425 1365,1420 1365,1420 1365,1415 1365,1415 1365,1408 1363,1406 1363,1406 1360,1403 1360,1403 1356,1403 1348,1401 1346,1399 1344,1396 1339,1396 1339,1396 1334,1396 1334,1396 1332,1394 1332,1394 1327,1394 1320,1391 1320,1391 1315,1391 1310,1389 1310,1389 1306,1387 1306,1387 1298,1387 1298,1387 1294,1384 1294,1384 1289,1384 1286,1382 1282,1382 1282,1382 1279,1380 1270,1380 1270,1380 1267,1377 1267,1377 1263,1377 1263,1377 1260,1375 1255,1375 1253,1375 1253,1375 1246,1375 1241,1372 1236,1372 1234,1372 1234,1372 1227,1372 1220,1372 1217,1372 1210,1372 1205,1370 1205,1370 1203,1368 1203,1368 1193,1368 1193,1368 1189,1368 1184,1365 1184,1365 1179,1365 1177,1365 1177,1365 1172,1365 1172,1365 1167,1365 1167,1365 1162,1365 1162,1365 1158,1365 1155,1365 1155,1365 1146,1360 1146,1360 1141,1360 1136,1360 1136,1360 1131,1360 1127,1360 1122,1358 1117,1358 1115,1356 1110,1356 1110,1356 1105,1356 1105,1356 1100,1356 1098,1353 1098,1353 1093,1353 1093,1353 1088,1353 1088,1353 1084,1353 1084,1353 1079,1351 1079,1351 1074,1351 1074,1351 1069,1351 1067,1348 1067,1348 1060,1348 1057,1348 1057,1348 1053,1348 1048,1348 1048,1348 1043,1348 1043,1348 1038,1348 1034,1348 1034,1348 1029,1346 1029,1346 1024,1346 1022,1346 1019,1346 1017,1344 1017,1344 1012,1344 1012,1344 1007,1344 1007,1344 1003,1344 1000,1344 1000,1344 995,1344 995,1344 993,1341 993,1341 988,1339 988,1339 983,1339 981,1339 979,1337 979,1337 974,1337 974,1337 969,1337 969,1337 964,1337 962,1337 960,1337 960,1337 955,1337 955,1337 950,1339 950,1339 945,1341 943,1341 943,1341 943,1337 943,1332 943,1332 943,1327 943,1327 943,1322 943,1322 943,1317 943,1317 943,1313 943,1313 943,1308 943,1308 943,1303 943,1303 943,1298 943,1298 943,1294 943,1294 938,1289 938,1289 938,1284 938,1284 938,1279 936,1277 936,1277 933,1275 933,1275 933,1270 933,1270 933,1265 933,1265 931,1263 931,1263 929,1258 929,1258 929,1253 929,1253 926,1251 924,1248 924,1244 924,1244 919,1239 919,1239 917,1234 917,1234 917,1229 917,1229 914,1227 912,1224 912,1220 912,1220 909,1215 909,1215 909,1210 909,1205 909,1205 907,1203 907,1198 907,1198 907,1193 907,1193 907,1189 907,1189 905,1184 902,1184 902,1179 900,1177 900,1177 900,1172 900,1172 900,1167 898,1165 898,1165 898,1160 898,1160 895,1155 895,1155 893,1148 893,1148 893,1143 893,1143 890,1136 890,1136 888,1134 888,1134 888,1129 886,1124 886,1124 886,1117 883,1117 883,1117 883,1112 883,1112 881,1108 881,1103 881,1103 881,1098 881,1098 881,1093 878,1088 876,1084 876,1084 876,1079 876,1079 874,1076 874,1076 874,1072 874,1072 874,1065 874,1065 874,1060 874,1060 874,1055 874,1055 874,1050 874,1050 874,1045 874,1045 876,1043 876,1043 876,1038 876,1038 876,1034 876,1034 881,1031 881,1031 881,1026 881,1026 883,1024 888,1022 890,1019 890,1019 893,1017 893,1017 898,1014 900,1012 900,1012 902,1010 902,1010 907,1010 907,1010 909,1007 909,1007 914,1005 914,1005 919,1005 919,1005 924,1003 924,1003 929,1003 929,1003 929,998 929,998 929,993 929,988 929,988 929,983 929,983 929,979 926,976 924,974 921,972 921,972 919,964 917,962 917,962 912,962 912,962 907,962 907,962 902,962 902,962 900,964 900,964 898,967 898,967 895,969 893,972 893,972 890,976 888,979 886,983 883,983 883,983 878,983 874,983 874,983 869,983 869,983 867,981 867,981 867,976 867,976 874,976 876,974 876,974 878,972 878,972 881,969 881,969 888,967 888,967 890,964 893,962 893,957 893,957 895,955 895,955 898,952 900,950 902,948 902,948 905,943 905,943 907,940 912,940 912,940 917,940 917,940 921,940 926,940 929,938 933,938 936,936 940,933 940,933 943,931 943,931 943,926 943,926 943,921 938,919 933,919 933,919 931,917 926,914 924,912 921,912 921,912 917,912 917,912 912,912 912,912 909,909 907,907 905,905 902,905 902,905 898,902 898,902 890,900 890,900 888,898 886,895 883,893 881,890 881,890 876,888 871,886 869,883 864,881 864,881 859,878 857,876 857,876 852,876 850,874 850,874 847,871 845,869 840,869 838,867 838,867 833,867 833,855" stroke="#f8691c" stroke-width="5" /><polygon fill="none" points="1692,664 1694,659 1694,654 1694,649 1694,642 1694,642 1694,635 1694,635 1694,630 1694,626 1694,626 1692,618 1692,618 1690,616 1690,616 1687,611 1687,611 1687,606 1687,606 1683,602 1683,602 1683,597 1683,597 1683,592 1683,592 1678,585 1678,585 1675,580 1675,580 1673,575 1673,571 1673,571 1673,564 1673,564 1673,556 1673,556 1673,552 1673,552 1673,547 1673,547 1673,542 1673,542 1673,535 1673,535 1673,530 1673,530 1673,523 1673,523 1673,516 1673,516 1673,511 1673,506 1673,506 1673,501 1673,501 1673,497 1668,492 1668,492 1666,487 1666,487 1661,482 1661,482 1661,478 1661,478 1659,475 1654,473 1654,473 1652,470 1647,470 1642,468 1642,468 1637,468 1637,468 1632,468 1632,468 1628,468 1625,468 1625,468 1620,468 1620,468 1616,468 1616,468 1611,468 1609,468 1606,468 1606,468 1599,468 1599,468 1594,468 1594,468 1589,470 1587,473 1585,473 1582,475 1580,478 1578,480 1575,482 1573,485 1573,487 1570,490 1570,492 1568,494 1568,497 1568,497 1566,499 1566,501 1566,501 1563,504 1563,506 1563,506 1563,511 1563,511 1561,513 1561,516 1561,516 1556,521 1556,521 1556,525 1556,525 1554,530 1554,530 1554,535 1549,537 1549,537 1549,542 1547,547 1547,547 1547,552 1544,554 1544,554 1542,556 1542,556 1539,561 1539,561 1539,566 1537,571 1535,573 1532,575 1532,575 1532,580 1532,580 1527,587 1527,587 1525,595 1525,595 1523,599 1523,599 1523,604 1520,606 1520,606 1518,609 1518,609 1516,614 1513,616 1511,618 1511,618 1511,623 1508,626 1506,628 1504,630 1501,633 1496,635 1496,635 1492,640 1489,642 1487,645 1484,647 1484,652 1484,652 1482,654 1482,659 1482,659 1482,664 1482,664 1482,668 1482,668 1484,673 1489,676 1489,676 1496,678 1496,678 1501,678 1504,680 1506,683 1511,683 1511,683 1513,685 1513,685 1513,690 1513,690 1513,695 1516,697 1518,700 1520,702 1523,704 1523,704 1527,707 1535,709 1539,709 1544,711 1544,711 1549,714 1551,719 1556,719 1556,719 1561,721 1561,721 1566,721 1568,723 1568,726 1573,726 1575,728 1575,728 1580,733 1582,735 1585,738 1587,740 1587,740 1592,742 1594,745 1597,747 1599,750 1601,752 1601,752 1604,757 1604,757 1606,759 1609,762 1609,762 1609,769 1609,769 1611,771 1611,771 1613,773 1616,778 1618,783 1620,785 1623,788 1623,788 1623,793 1625,795 1625,795 1628,800 1630,802 1630,802 1632,807 1632,809 1632,809 1635,814 1635,814 1637,819 1640,821 1642,824 1642,824 1644,826 1644,826 1647,828 1647,828 1654,833 1654,833 1659,833 1659,833 1661,836 1661,836 1666,836 1666,836 1671,836 1671,836 1673,838 1675,840 1675,840 1680,843 1680,843 1685,843 1685,843 1690,843 1692,847 1692,847 1697,847 1699,850 1699,850 1704,850 1709,855 1714,857 1714,857 1718,857 1718,857 1723,857 1728,857 1728,857 1735,857 1735,857 1740,857 1740,857 1745,857 1745,857 1749,857 1749,857 1754,857 1754,857 1759,857 1761,855 1761,855 1766,855 1766,855 1768,852 1768,852 1771,850 1771,850 1776,847 1778,845 1778,845 1778,840 1778,840 1778,836 1778,836 1778,831 1778,831 1778,826 1776,821 1773,819 1768,814 1766,812 1764,809 1761,807 1759,804 1759,804 1754,802 1752,800 1749,797 1745,797 1745,797 1742,793 1740,790 1735,785 1735,785 1733,783 1733,783 1725,778 1725,778 1723,773 1723,773 1721,771 1721,771 1716,766 1711,766 1711,766 1709,762 1706,759 1706,759 1704,757 1702,757 1702,757 1699,754 1697,752 1694,750 1692,747 1690,745 1685,742 1685,742 1683,740 1683,740 1683,735 1683,735 1680,733 1678,731 1678,731 1678,723 1678,723 1675,721 1673,716 1673,716 1671,709 1671,709 1671,704 1671,704 1671,700 1671,695 1671,695 1671,688 1671,688 1671,683 1671,683 1671,678 1692,664" stroke="#f8691c" stroke-width="5" /><polygon fill="none" points="571,721 566,721 564,721 564,721 556,721 556,721 552,721 552,721 547,721 547,721 544,723 544,723 540,723 540,723 535,723 532,726 530,726 530,726 525,726 523,728 523,728 518,733 518,733 516,735 516,735 513,740 513,740 513,745 513,745 513,752 513,752 513,757 513,757 513,762 516,764 518,766 521,769 521,769 525,771 525,771 530,771 530,771 535,771 535,771 540,771 544,771 544,771 554,771 554,771 559,771 559,771 564,771 564,771 568,771 571,769 573,766 573,766 580,766 583,764 585,762 585,762 587,759 587,759 592,759 595,757 595,757 599,754 602,752 602,752 604,750 604,750 604,745 604,745 604,740 604,740 602,735 602,735 599,733 599,733 599,728 599,728 597,726 595,723 592,721 590,719 590,719 585,719 585,719 580,719 580,719 575,719 571,721" stroke="#f8691c" stroke-width="5" /><polygon fill="none" points="1772,1788 1767,1788 1765,1788 1765,1788 1758,1785 1755,1780 1753,1780 1751,1778 1748,1773 1748,1773 1743,1771 1743,1771 1741,1766 1739,1764 1739,1764 1736,1761 1734,1761 1734,1761 1731,1756 1731,1756 1727,1752 1727,1752 1722,1749 1717,1747 1715,1747 1715,1747 1712,1745 1710,1745 1708,1742 1708,1742 1703,1740 1700,1737 1700,1737 1696,1737 1693,1737 1691,1735 1686,1735 1686,1735 1684,1733 1681,1730 1681,1730 1677,1730 1674,1730 1672,1730 1669,1730 1669,1730 1665,1730 1660,1730 1660,1730 1655,1728 1653,1728 1650,1728 1650,1728 1643,1725 1643,1725 1636,1725 1634,1725 1629,1725 1629,1725 1622,1725 1622,1725 1617,1725 1615,1725 1612,1725 1610,1725 1610,1725 1600,1725 1595,1725 1593,1725 1591,1725 1591,1725 1586,1725 1586,1725 1581,1725 1579,1725 1576,1725 1574,1725 1572,1725 1572,1725 1567,1728 1567,1728 1562,1728 1557,1730 1557,1730 1550,1735 1545,1737 1545,1737 1543,1740 1541,1742 1538,1742 1536,1745 1533,1747 1533,1747 1529,1747 1529,1747 1524,1749 1524,1749 1519,1752 1519,1752 1517,1754 1514,1754 1512,1756 1510,1761 1510,1761 1505,1764 1505,1764 1502,1768 1500,1771 1498,1773 1495,1773 1493,1776 1490,1778 1490,1778 1486,1780 1483,1783 1481,1785 1479,1788 1476,1790 1474,1790 1471,1792 1471,1792 1471,1797 1471,1797 1471,1802 1469,1807 1469,1807 1469,1811 1469,1811 1469,1816 1469,1821 1469,1821 1471,1826 1474,1828 1474,1828 1476,1833 1476,1833 1481,1835 1486,1838 1488,1840 1493,1840 1498,1845 1498,1845 1502,1845 1502,1845 1507,1845 1512,1847 1514,1850 1514,1850 1519,1852 1521,1854 1521,1854 1526,1854 1531,1861 1531,1861 1536,1866 1538,1869 1541,1871 1545,1873 1548,1876 1548,1876 1555,1881 1555,1881 1562,1883 1567,1885 1567,1885 1572,1885 1572,1885 1579,1885 1579,1885 1588,1890 1588,1890 1593,1890 1598,1890 1600,1892 1605,1892 1605,1892 1612,1892 1612,1892 1619,1892 1619,1892 1626,1897 1626,1897 1631,1900 1631,1900 1636,1900 1636,1900 1641,1900 1643,1904 1648,1904 1648,1904 1657,1904 1662,1904 1662,1904 1667,1907 1667,1907 1672,1907 1672,1907 1677,1907 1679,1909 1684,1912 1684,1912 1691,1914 1691,1914 1693,1919 1698,1921 1698,1921 1700,1924 1700,1924 1705,1928 1710,1931 1712,1933 1715,1938 1715,1938 1717,1940 1717,1940 1720,1945 1722,1947 1724,1952 1729,1952 1729,1952 1731,1957 1734,1959 1734,1959 1739,1962 1743,1964 1743,1964 1746,1966 1751,1966 1751,1966 1753,1969 1758,1974 1758,1974 1765,1974 1767,1976 1772,1976 1772,1976 1779,1976 1779,1976 1782,1978 1782,1978 1789,1978 1793,1981 1793,1981 1798,1983 1798,1983 1803,1983 1808,1986 1808,1986 1810,1988 1815,1988 1817,1990 1822,1993 1824,1995 1824,1995 1827,2000 1832,2002 1834,2005 1834,2005 1839,2007 1839,2007 1844,2009 1844,2009 1848,2009 1848,2009 1856,2009 1858,2012 1860,2014 1860,2014 1865,2017 1867,2019 1870,2021 1875,2024 1877,2026 1879,2028 1879,2028 1884,2031 1884,2031 1889,2033 1889,2033 1894,2033 1894,2033 1898,2033 1903,2033 1906,2036 1906,2036 1910,2036 1918,2036 1918,2036 1925,2038 1925,2038 1932,2038 1932,2038 1937,2038 1941,2038 1941,2038 1946,2038 1946,2038 1953,2038 1953,2038 1958,2038 1958,2038 1963,2038 1963,2038 1968,2040 1968,2040 1972,2040 1972,2040 1977,2040 1977,2040 1982,2040 1982,2040 1987,2040 1987,2040 1992,2040 1992,2040 1996,2040 1996,2040 2001,2040 2001,2040 2006,2040 2006,2040 2011,2040 2015,2040 2015,2040 2023,2040 2023,2040 2030,2040 2030,2040 2034,2038 2034,2038 2034,2033 2034,2033 2034,2028 2034,2028 2034,2024 2034,2019 2034,2019 2034,2014 2034,2014 2034,2009 2034,2009 2034,2005 2032,2002 2032,2002 2032,1997 2032,1997 2032,1990 2030,1988 2030,1988 2030,1983 2027,1981 2025,1978 2023,1976 2020,1974 2020,1974 2018,1969 2015,1966 2013,1964 2013,1964 2011,1962 2008,1962 2006,1957 2003,1955 2003,1955 2003,1950 2001,1947 2001,1947 2001,1943 2001,1943 2001,1938 2001,1938 2001,1933 1999,1928 1999,1928 1999,1924 1999,1924 1999,1919 1999,1919 1999,1914 1999,1914 1999,1907 1999,1907 1999,1900 1999,1900 1999,1892 1999,1892 1999,1885 1999,1885 1996,1878 1996,1878 1994,1873 1992,1869 1989,1866 1987,1864 1984,1861 1984,1861 1982,1859 1977,1857 1975,1854 1968,1854 1965,1852 1960,1852 1956,1850 1956,1850 1953,1847 1951,1845 1949,1845 1946,1842 1944,1842 1944,1842 1941,1835 1941,1835 1941,1828 1941,1828 1937,1821 1937,1816 1937,1816 1934,1811 1932,1809 1932,1809 1929,1807 1929,1807 1929,1802 1929,1802 1927,1797 1925,1795 1922,1795 1920,1790 1918,1788 1918,1788 1915,1785 1913,1783 1910,1780 1908,1780 1908,1780 1906,1776 1903,1773 1903,1773 1898,1771 1896,1766 1891,1766 1889,1764 1887,1764 1884,1761 1884,1761 1882,1759 1882,1759 1877,1759 1877,1759 1872,1759 1870,1759 1867,1759 1865,1759 1865,1759 1860,1759 1856,1761 1856,1761 1853,1764 1851,1766 1848,1768 1848,1768 1846,1776 1844,1776 1844,1776 1841,1780 1841,1780 1841,1785 1841,1785 1839,1790 1839,1790 1839,1795 1839,1795 1839,1802 1839,1802 1836,1807 1836,1807 1832,1809 1832,1809 1829,1811 1827,1811 1824,1811 1824,1811 1820,1811 1820,1811 1815,1811 1813,1811 1808,1811 1805,1811 1801,1809 1798,1807 1796,1804 1791,1802 1789,1799 1789,1799 1786,1797 1784,1795 1782,1792 1782,1792 1779,1788 1772,1788" stroke="#f8691c" stroke-width="5" /></svg>