<?xml version="1.0" encoding="utf-8" ?>
<svg baseProfile="tiny" height="2048" version="1.2" width="2048" xmlns="http://www.w3.org/2000/svg" xmlns:ev="http://www.w3.org/2001/xml-events" xmlns:xlink="http://www.w3.org/1999/xlink"><defs /><polygon fill="white" points="707,1360 707,1358 707,1356 707,1354 707,1354 706,1352 705,1350 704,1349 702,1348 701,1348 701,1348 700,1346 699,1344 698,1343 696,1343 696,1343 695,1342 695,1342 693,1342 692,1341 690,1341 689,1341 689,1341 687,1340 686,1340 684,1338 684,1338 682,1338 681,1338 680,1338 679,1338 679,1338 676,1338 675,1338 673,1338 673,1338 669,1338 668,1340 665,1340 664,1340 664,1340 663,1341 661,1341 661,1341 659,1342 658,1342 657,1342 656,1343 656,1343 653,1344 652,1344 651,1344 650,1346 649,1346 648,1346 648,1346 646,1347 646,1347 645,1348 644,1349 643,1349 643,1349 643,1352 642,1353 640,1354 640,1354 639,1355 639,1355 638,1358 638,1358 638,1360 638,1362 638,1362 638,1366 638,1366 638,1369 639,1371 639,1371 640,1372 640,1372 640,1374 640,1374 642,1375 642,1375 643,1377 643,1377 644,1378 645,1379 646,1380 646,1380 649,1380 649,1380 650,1381 650,1381 653,1381 653,1381 656,1381 656,1381 658,1381 658,1381 661,1381 661,1381 663,1381 663,1381 665,1381 665,1381 668,1381 668,1381 670,1381 670,1381 673,1381 673,1381 675,1381 675,1381 677,1381 677,1381 680,1381 682,1381 683,1380 686,1380 686,1380 689,1380 689,1380 690,1379 693,1379 694,1377 694,1377 698,1375 698,1375 699,1373 699,1373 700,1372 700,1372 701,1369 702,1368 704,1366 705,1365 705,1365 705,1362 707,1360" stroke="#f8691c" stroke-width="5" /><polygon fill="white" points="892,1101 890,1100 890,1097 890,1097 890,1095 890,1095 890,1093 888,1092 888,1092 888,1089 888,1087 887,1086 887,1083 886,1082 885,1078 885,1078 885,1076 885,1076 884,1074 884,1074 883,1070 883,1070 881,1068 881,1068 881,1065 881,1065 881,1063 881,1063 880,1062 879,1059 878,1058 878,1058 877,1057 874,1055 874,1055 873,1053 872,1052 871,1051 869,1050 868,1049 868,1049 867,1047 866,1047 866,1047 865,1046 865,1046 862,1044 861,1043 860,1041 860,1041 859,1040 859,1040 857,1038 857,1038 856,1037 855,1035 855,1035 854,1033 854,1033 853,1032 852,1031 852,1031 850,1029 850,1029 849,1028 848,1028 847,1027 846,1026 844,1026 843,1026 842,1025 842,1025 840,1025 838,1025 837,1025 836,1025 834,1025 832,1025 830,1025 830,1025 826,1025 825,1025 825,1025 823,1025 822,1025 820,1025 820,1025 817,1025 813,1025 811,1025 810,1025 809,1025 809,1025 806,1025 805,1025 804,1025 804,1025 801,1025 800,1025 798,1025 798,1025 794,1025 793,1025 793,1025 791,1025 789,1025 788,1025 787,1025 787,1025 785,1025 784,1025 782,1026 780,1027 779,1027 778,1027 776,1027 775,1029 775,1029 774,1031 773,1031 770,1033 770,1033 769,1034 768,1034 767,1035 766,1035 766,1035 764,1037 763,1038 762,1038 762,1038 761,1039 761,1039 760,1040 758,1041 757,1041 757,1041 756,1043 756,1043 755,1044 754,1045 751,1046 750,1046 750,1046 749,1047 749,1047 748,1049 747,1049 745,1050 744,1051 744,1051 742,1052 741,1052 739,1053 739,1053 738,1056 736,1057 736,1057 736,1059 736,1059 736,1062 736,1062 736,1064 735,1064 735,1064 735,1066 735,1066 735,1069 735,1069 735,1071 735,1071 735,1075 735,1075 735,1077 735,1077 735,1080 735,1080 735,1082 735,1082 735,1084 735,1084 735,1087 735,1087 736,1089 737,1090 737,1090 737,1093 738,1094 739,1095 741,1096 742,1097 742,1097 743,1100 744,1101 745,1102 745,1102 747,1103 747,1103 748,1106 749,1107 750,1109 751,1111 752,1112 754,1113 755,1114 756,1115 756,1115 757,1118 757,1118 760,1119 760,1119 762,1121 763,1123 766,1123 767,1124 769,1124 769,1124 770,1125 773,1125 774,1126 774,1126 776,1127 776,1127 779,1127 781,1127 781,1127 784,1130 784,1130 787,1130 787,1130 789,1130 789,1130 792,1130 792,1130 794,1130 794,1130 797,1130 799,1130 801,1130 801,1130 805,1130 805,1130 809,1130 809,1130 812,1130 812,1130 815,1130 815,1130 817,1130 819,1130 819,1130 823,1130 823,1130 825,1130 825,1130 828,1130 828,1130 830,1130 830,1130 832,1130 832,1130 836,1130 836,1130 838,1130 838,1130 841,1130 841,1130 843,1130 843,1130 846,1130 846,1130 848,1130 848,1130 850,1130 850,1130 853,1130 855,1130 855,1130 857,1129 857,1129 860,1129 860,1129 862,1129 862,1129 863,1127 863,1127 866,1127 867,1126 868,1125 868,1125 871,1125 872,1124 874,1123 874,1123 877,1120 878,1118 878,1118 880,1118 881,1117 883,1115 884,1114 885,1113 885,1113 886,1112 886,1112 887,1109 888,1108 888,1108 890,1107 890,1105 891,1103 891,1103 892,1101" stroke="#f8691c" stroke-width="5" /><polygon fill="white" points="718,1230 716,1231 716,1230 716,1230 714,1228 713,1226 712,1225 712,1225 712,1223 712,1223 711,1220 711,1220 710,1219 710,1219 708,1217 708,1217 708,1214 707,1213 706,1212 706,1212 706,1210 705,1208 705,1208 705,1206 704,1205 704,1205 702,1201 701,1200 700,1198 700,1198 700,1195 700,1195 698,1193 698,1193 698,1191 696,1188 696,1188 694,1185 694,1185 693,1182 693,1182 693,1180 692,1180 692,1180 692,1177 692,1177 690,1176 690,1176 690,1174 689,1174 689,1174 689,1171 689,1171 688,1170 687,1169 687,1169 686,1168 683,1167 683,1167 682,1164 681,1164 680,1163 679,1163 679,1163 676,1162 675,1162 674,1162 673,1161 670,1160 669,1158 668,1157 667,1155 667,1155 665,1154 665,1154 664,1151 663,1150 662,1149 661,1148 659,1146 657,1145 657,1145 655,1145 653,1145 652,1144 651,1144 651,1144 648,1144 648,1144 646,1143 646,1143 644,1143 643,1142 642,1142 642,1142 640,1140 638,1140 637,1140 634,1140 633,1142 631,1142 630,1143 630,1143 627,1145 626,1145 626,1145 626,1148 625,1150 625,1150 625,1152 624,1154 624,1154 624,1156 624,1156 624,1158 624,1158 624,1161 624,1161 624,1163 624,1163 624,1165 624,1165 622,1167 622,1167 622,1169 622,1169 622,1171 622,1171 622,1174 622,1174 622,1176 621,1177 621,1177 621,1180 621,1180 621,1182 620,1185 620,1185 620,1187 619,1188 619,1188 619,1191 619,1191 619,1193 619,1193 619,1195 619,1195 618,1197 618,1197 618,1199 618,1199 618,1202 618,1202 616,1204 615,1205 615,1205 615,1207 615,1207 615,1210 614,1210 614,1210 614,1212 613,1213 613,1213 612,1214 612,1214 612,1217 611,1219 611,1219 609,1220 609,1220 608,1222 608,1222 608,1224 608,1224 607,1226 607,1226 606,1229 606,1229 605,1231 603,1232 602,1233 602,1233 601,1236 600,1237 599,1237 599,1237 599,1239 599,1239 597,1242 597,1242 597,1244 597,1244 597,1247 597,1247 597,1250 597,1250 597,1253 597,1253 597,1255 597,1255 597,1257 597,1257 599,1260 600,1261 600,1263 602,1265 602,1267 603,1268 603,1268 606,1270 606,1273 606,1273 607,1274 608,1276 611,1278 611,1278 612,1280 612,1280 613,1282 613,1282 614,1284 615,1286 616,1287 618,1288 618,1288 620,1291 620,1291 621,1292 621,1292 622,1294 624,1296 624,1296 625,1297 626,1298 626,1298 627,1299 627,1299 628,1300 630,1301 631,1303 631,1303 633,1304 634,1305 636,1306 639,1309 639,1309 640,1310 640,1310 643,1310 645,1311 645,1311 646,1312 646,1312 650,1312 651,1313 655,1315 655,1315 659,1316 659,1316 662,1317 662,1317 665,1317 665,1317 668,1317 668,1317 670,1317 670,1317 674,1317 676,1317 679,1317 681,1317 681,1317 683,1317 683,1317 687,1317 687,1317 689,1317 689,1317 692,1317 692,1317 694,1317 694,1317 696,1317 696,1317 699,1317 699,1317 700,1316 700,1316 702,1316 704,1315 704,1315 705,1313 705,1313 707,1312 707,1310 707,1310 710,1309 711,1307 712,1306 712,1306 713,1305 713,1305 716,1303 716,1303 718,1303 718,1303 719,1301 719,1301 721,1299 721,1299 723,1298 723,1298 725,1297 725,1297 726,1296 727,1294 729,1293 729,1293 729,1291 730,1290 731,1287 731,1287 731,1285 731,1282 731,1282 731,1280 731,1280 731,1278 730,1275 729,1274 727,1272 726,1270 726,1270 726,1268 726,1268 725,1267 725,1267 724,1263 723,1262 723,1262 723,1260 721,1259 721,1256 721,1256 720,1254 719,1251 719,1251 719,1249 719,1249 719,1247 719,1247 719,1244 719,1244 719,1242 719,1242 719,1239 718,1237 718,1237 718,1235 718,1235 718,1232 716,1230 716,1230 716,1228 716,1228 716,1225 718,1230" stroke="#f8691c" stroke-width="5" /><polygon fill="white" points="885,1304 883,1304 881,1304 879,1304 873,1304 868,1304 865,1304 861,1304 857,1304 855,1304 854,1304 853,1304 853,1304 850,1304 849,1304 848,1304 847,1304 847,1304 844,1304 843,1304 842,1304 842,1304 840,1304 838,1304 837,1304 835,1304 835,1304 834,1305 831,1305 831,1305 828,1307 826,1307 825,1307 825,1307 823,1307 822,1309 820,1309 820,1309 818,1310 817,1310 817,1310 816,1312 815,1312 815,1312 811,1315 810,1315 807,1316 806,1316 805,1317 805,1317 803,1318 803,1318 801,1319 800,1322 799,1322 798,1322 798,1322 797,1323 794,1324 794,1324 793,1325 793,1325 792,1327 791,1328 791,1328 789,1330 788,1330 788,1330 787,1331 786,1334 785,1334 785,1334 784,1336 782,1336 782,1336 782,1338 782,1338 781,1340 780,1341 780,1341 780,1343 779,1343 779,1343 778,1346 778,1346 778,1348 778,1348 778,1350 778,1350 778,1353 778,1353 778,1355 778,1355 778,1358 778,1358 778,1360 778,1360 778,1362 778,1362 778,1365 778,1365 778,1367 778,1367 778,1369 778,1369 778,1372 778,1372 779,1373 779,1373 779,1375 779,1375 780,1377 780,1377 781,1379 781,1379 782,1381 782,1384 782,1384 784,1385 784,1387 785,1389 785,1389 786,1391 786,1391 787,1393 787,1393 788,1396 788,1396 789,1398 789,1398 791,1399 792,1401 794,1401 795,1402 798,1402 799,1403 799,1403 801,1403 801,1403 805,1405 805,1405 807,1405 807,1405 810,1405 813,1406 813,1406 815,1408 815,1408 819,1409 819,1409 820,1410 823,1410 825,1410 825,1410 828,1410 828,1410 831,1411 831,1411 834,1412 836,1412 838,1414 838,1414 841,1415 843,1415 843,1415 846,1415 846,1415 848,1415 848,1415 850,1415 853,1416 853,1416 854,1417 854,1417 856,1417 856,1417 859,1417 859,1417 862,1417 862,1417 865,1417 865,1417 867,1417 867,1417 869,1417 869,1417 873,1417 873,1417 875,1417 875,1417 878,1417 878,1417 880,1417 880,1417 883,1417 883,1417 885,1417 885,1417 887,1417 890,1417 890,1417 893,1417 893,1417 897,1417 897,1417 899,1417 899,1417 902,1417 902,1417 904,1417 904,1417 906,1417 906,1417 909,1417 909,1417 911,1417 911,1417 914,1417 914,1417 916,1417 916,1417 918,1417 918,1417 922,1416 922,1416 924,1416 924,1416 927,1415 928,1414 928,1414 930,1412 930,1412 933,1412 933,1412 934,1411 934,1411 935,1410 935,1410 936,1409 936,1409 940,1409 941,1408 941,1408 943,1406 945,1405 945,1405 947,1405 948,1403 951,1403 952,1402 952,1402 955,1401 955,1401 956,1399 958,1398 958,1398 961,1396 961,1396 964,1395 964,1395 966,1395 967,1392 968,1391 968,1391 971,1391 972,1390 972,1390 973,1389 974,1387 976,1385 978,1385 979,1384 979,1384 982,1381 983,1380 983,1380 985,1378 985,1378 988,1378 988,1378 989,1377 989,1377 991,1375 992,1374 992,1374 995,1374 997,1373 997,1373 999,1373 999,1373 1002,1372 1003,1371 1003,1371 1005,1371 1005,1371 1008,1371 1008,1371 1009,1369 1009,1369 1011,1369 1011,1369 1014,1369 1016,1368 1016,1368 1019,1368 1020,1367 1020,1367 1021,1366 1021,1366 1023,1366 1026,1365 1026,1365 1027,1362 1027,1362 1029,1362 1030,1361 1030,1361 1033,1361 1034,1360 1034,1360 1035,1359 1036,1358 1038,1356 1039,1355 1039,1355 1040,1354 1041,1353 1042,1352 1042,1352 1044,1350 1044,1350 1046,1348 1047,1347 1047,1347 1050,1346 1050,1346 1051,1343 1051,1343 1052,1342 1052,1342 1054,1341 1056,1340 1057,1338 1058,1337 1060,1335 1061,1334 1061,1331 1061,1331 1064,1331 1064,1331 1065,1329 1065,1329 1067,1325 1067,1325 1069,1323 1069,1323 1069,1321 1069,1321 1069,1318 1069,1316 1071,1315 1071,1312 1071,1312 1072,1310 1072,1310 1072,1307 1072,1307 1072,1305 1073,1304 1073,1304 1073,1301 1073,1301 1073,1299 1073,1299 1073,1297 1073,1297 1073,1294 1073,1294 1072,1293 1071,1293 1069,1293 1069,1293 1066,1293 1065,1293 1065,1293 1061,1293 1060,1294 1058,1296 1056,1297 1053,1298 1052,1299 1050,1299 1050,1299 1048,1300 1047,1301 1046,1303 1045,1303 1044,1304 1042,1305 1042,1305 1040,1305 1039,1306 1038,1307 1038,1307 1035,1309 1032,1310 1029,1310 1029,1310 1028,1312 1026,1312 1026,1312 1023,1313 1022,1313 1020,1313 1019,1315 1017,1315 1016,1315 1016,1315 1013,1315 1011,1315 1010,1315 1010,1315 1008,1315 1007,1315 1005,1315 1004,1315 1004,1315 1002,1315 1001,1315 999,1315 999,1315 997,1315 996,1315 995,1315 993,1315 993,1315 991,1315 990,1315 988,1315 988,1315 985,1315 984,1315 983,1315 983,1315 980,1315 979,1315 977,1315 974,1315 973,1315 972,1315 972,1315 970,1315 968,1313 967,1313 965,1313 962,1313 959,1312 958,1312 955,1311 955,1311 953,1311 952,1311 951,1311 951,1311 948,1311 947,1311 946,1311 943,1311 942,1310 941,1309 940,1307 940,1307 936,1307 935,1307 933,1307 931,1307 930,1307 929,1307 928,1306 922,1304 922,1304 920,1304 917,1304 917,1304 915,1304 914,1303 912,1303 912,1303 910,1303 909,1303 906,1303 906,1303 904,1303 903,1303 902,1303 900,1300 900,1300 898,1300 897,1300 896,1300 893,1300 892,1300 890,1300 890,1300 887,1300 886,1300 885,1300 885,1300 881,1300 879,1300 879,1300 874,1300 874,1300 885,1304" stroke="#f8691c" stroke-width="5" /><polygon fill="white" points="571,1368 570,1371 570,1372 569,1372 568,1373 567,1374 565,1377 564,1377 564,1377 563,1378 562,1379 561,1379 560,1380 560,1380 558,1382 558,1382 556,1382 555,1382 554,1382 552,1382 552,1382 550,1382 548,1382 548,1382 545,1382 544,1382 543,1382 542,1382 542,1382 539,1382 538,1382 536,1380 533,1380 532,1380 531,1380 531,1380 528,1380 528,1380 527,1378 526,1378 525,1378 525,1378 521,1377 520,1377 520,1377 518,1376 517,1374 514,1373 514,1373 512,1371 511,1371 509,1370 509,1370 507,1370 506,1370 506,1370 503,1367 503,1367 501,1367 500,1367 499,1367 496,1366 495,1366 493,1366 493,1366 490,1365 490,1365 489,1364 488,1364 486,1364 484,1364 483,1364 482,1362 482,1362 480,1362 477,1360 476,1359 474,1359 474,1356 474,1356 474,1354 472,1353 471,1351 470,1349 470,1349 469,1347 469,1347 468,1345 466,1342 466,1342 465,1340 464,1337 463,1335 462,1334 462,1334 462,1331 460,1330 460,1330 459,1329 459,1329 459,1327 459,1327 459,1324 459,1324 458,1323 457,1322 457,1322 456,1318 456,1318 455,1315 455,1315 455,1312 453,1311 453,1311 452,1310 452,1310 452,1306 452,1306 452,1304 452,1304 452,1302 452,1299 452,1299 452,1296 452,1296 452,1292 452,1292 452,1288 452,1288 452,1286 452,1286 452,1284 452,1284 452,1281 452,1281 452,1279 452,1279 452,1277 452,1277 452,1274 452,1274 452,1272 452,1272 452,1269 452,1269 452,1267 452,1267 452,1265 452,1265 452,1262 452,1262 452,1260 452,1260 453,1257 456,1256 456,1256 458,1255 458,1255 462,1254 463,1253 465,1252 465,1252 468,1252 468,1252 470,1252 470,1252 472,1252 472,1252 475,1252 475,1252 478,1252 481,1252 481,1252 483,1252 483,1252 486,1252 488,1252 488,1252 490,1252 490,1252 493,1252 493,1252 495,1252 495,1252 499,1252 499,1252 501,1252 501,1252 506,1252 506,1252 509,1252 513,1253 513,1253 515,1253 515,1253 518,1253 518,1253 520,1254 524,1255 526,1255 526,1255 528,1256 530,1257 530,1257 532,1257 534,1259 536,1260 536,1260 538,1261 542,1262 542,1262 544,1262 546,1265 546,1265 549,1265 550,1266 550,1266 552,1266 555,1268 555,1268 557,1269 557,1269 558,1271 560,1272 561,1273 561,1275 562,1278 562,1278 563,1280 563,1280 564,1283 564,1283 564,1285 564,1285 565,1287 565,1287 565,1290 567,1291 567,1291 567,1293 568,1294 568,1294 568,1297 568,1297 568,1299 568,1299 569,1300 569,1300 569,1303 570,1304 570,1304 570,1306 571,1308 571,1308 571,1310 571,1310 571,1312 571,1315 571,1315 571,1317 573,1318 573,1318 573,1321 573,1321 573,1323 573,1323 573,1325 573,1325 573,1328 573,1328 573,1330 573,1330 573,1333 573,1333 573,1335 573,1335 573,1339 573,1339 573,1342 573,1342 573,1345 573,1345 573,1347 573,1347 573,1349 573,1349 573,1352 573,1352 573,1354 573,1354 573,1356 573,1356 573,1359 573,1359 573,1361 573,1361 573,1364 573,1364 574,1365 571,1368" stroke="#f8691c" stroke-width="5" /></svg>