<?xml version="1.0" encoding="utf-8" ?>
<svg baseProfile="tiny" height="2048" version="1.2" width="2048" xmlns="http://www.w3.org/2000/svg" xmlns:ev="http://www.w3.org/2001/xml-events" xmlns:xlink="http://www.w3.org/1999/xlink"><defs /><polygon fill="white" points="1136,678 1131,678 1127,678 1127,678 1119,678 1119,678 1115,678 1115,678 1110,678 1110,678 1105,678 1103,680 1100,683 1100,683 1098,685 1096,688 1096,688 1091,690 1088,692 1088,692 1086,697 1086,697 1084,700 1084,700 1081,702 1079,704 1076,707 1076,707 1074,709 1074,709 1072,711 1072,711 1069,714 1067,716 1065,719 1065,719 1062,723 1060,726 1060,726 1057,728 1057,728 1055,731 1053,733 1050,735 1048,738 1048,738 1045,740 1043,742 1041,745 1041,745 1038,747 1038,747 1036,750 1034,752 1034,752 1031,757 1029,759 1026,762 1024,766 1024,766 1022,771 1019,773 1019,773 1017,776 1017,781 1012,785 1010,790 1010,790 1010,795 1007,797 1005,802 1003,804 1003,804 1003,809 1003,809 1003,814 1003,814 1000,816 1000,816 1000,821 998,824 998,824 998,831 998,831 998,838 998,838 995,845 995,845 995,852 995,852 993,859 993,859 993,867 993,867 993,871 993,871 993,876 993,876 993,881 993,881 993,890 993,895 993,895 993,902 993,902 993,907 993,907 993,912 993,912 993,917 993,917 993,924 993,924 993,929 993,929 993,933 995,936 998,938 998,938 998,943 998,943 998,948 1000,952 1000,952 1000,957 1000,957 1003,960 1003,960 1003,964 1003,964 1005,969 1007,972 1007,972 1007,976 1010,979 1010,979 1012,986 1012,986 1014,988 1014,988 1014,993 1017,995 1017,1000 1017,1000 1019,1005 1019,1005 1019,1010 1022,1012 1022,1017 1022,1017 1024,1019 1024,1019 1024,1024 1026,1026 1029,1029 1029,1029 1031,1034 1034,1038 1034,1038 1034,1043 1036,1045 1036,1045 1036,1050 1038,1050 1038,1050 1041,1055 1043,1057 1045,1060 1045,1060 1048,1062 1048,1062 1050,1065 1053,1067 1055,1069 1055,1069 1057,1072 1057,1072 1060,1074 1062,1076 1065,1081 1065,1081 1069,1084 1069,1084 1072,1088 1072,1088 1074,1093 1076,1093 1076,1093 1081,1098 1081,1098 1084,1100 1084,1100 1088,1105 1088,1105 1091,1108 1093,1110 1093,1110 1096,1112 1098,1115 1098,1115 1103,1115 1103,1115 1108,1115 1108,1115 1112,1115 1115,1115 1115,1115 1119,1115 1119,1115 1124,1112 1124,1112 1129,1112 1129,1110 1129,1110 1131,1108 1134,1105 1136,1103 1136,1103 1141,1098 1141,1098 1146,1096 1146,1096 1150,1093 1153,1093 1153,1091 1155,1088 1158,1088 1158,1088 1160,1086 1165,1081 1165,1079 1170,1079 1174,1079 1174,1076 1174,1076 1179,1076 1179,1074 1181,1072 1184,1072 1184,1072 1186,1069 1186,1069 1191,1069 1193,1067 1196,1065 1198,1062 1201,1062 1203,1057 1205,1055 1205,1055 1208,1053 1210,1050 1212,1048 1215,1045 1217,1043 1222,1038 1224,1034 1229,1029 1232,1026 1232,1022 1234,1022 1234,1019 1234,1017 1236,1014 1236,1012 1239,1007 1239,1005 1241,1003 1241,1000 1241,998 1244,998 1244,995 1244,993 1244,993 1244,988 1244,986 1244,983 1244,981 1244,979 1246,976 1246,974 1248,969 1251,964 1251,962 1251,957 1251,955 1253,952 1253,952 1255,948 1255,945 1255,943 1255,943 1258,940 1258,938 1258,936 1258,936 1258,931 1260,929 1260,926 1260,924 1260,921 1263,919 1263,917 1263,917 1263,909 1263,909 1265,907 1265,902 1265,900 1265,895 1265,895 1267,890 1267,888 1267,886 1267,883 1267,881 1267,878 1270,876 1270,876 1270,871 1270,871 1272,867 1272,864 1272,862 1272,859 1272,855 1272,855 1272,850 1272,845 1272,843 1272,840 1272,838 1272,838 1272,833 1272,833 1272,828 1272,826 1272,824 1272,821 1272,819 1272,819 1272,814 1272,814 1272,809 1272,804 1275,802 1275,800 1275,797 1275,793 1277,793 1277,790 1277,788 1277,783 1277,783 1279,781 1279,776 1279,776 1279,769 1279,766 1279,764 1279,762 1279,759 1279,759 1279,754 1279,752 1279,750 1279,747 1279,742 1279,740 1279,740 1279,735 1279,735 1279,728 1279,726 1279,723 1279,721 1279,721 1279,716 1279,716 1279,711 1279,709 1279,707 1279,704 1279,702 1279,702 1279,697 1279,697 1279,692 1279,690 1279,688 1279,685 1279,683 1279,678 1279,678 1279,671 1279,668 1279,664 1279,661 1279,657 1279,654 1279,652 1279,649 1279,647 1279,645 1279,642 1279,642 1279,637 1279,637 1279,633 1279,630 1279,628 1279,623 1277,621 1275,618 1275,618 1270,618 1267,614 1267,614 1260,611 1258,609 1258,606 1258,606 1253,604 1253,604 1246,599 1246,599 1244,597 1244,597 1239,595 1239,592 1239,592 1236,590 1236,590 1234,587 1234,587 1229,585 1229,585 1224,583 1224,583 1222,580 1222,580 1217,580 1217,580 1212,578 1208,575 1208,575 1203,575 1203,575 1198,575 1198,575 1193,575 1193,575 1189,578 1186,578 1184,580 1181,583 1181,583 1177,585 1174,587 1172,590 1170,592 1167,595 1165,597 1165,597 1162,599 1160,602 1160,602 1160,606 1158,609 1158,609 1155,614 1155,614 1153,618 1153,618 1153,623 1153,623 1153,628 1150,630 1150,630 1148,633 1148,633 1148,637 1148,637 1148,642 1146,645 1146,645 1146,649 1146,649 1143,654 1143,654 1143,661 1143,661 1141,664 1141,668 1141,668 1136,678" stroke="#f8691c" stroke-width="5" /><polygon fill="white" points="532,738 532,733 530,733 525,731 525,728 521,726 521,723 521,723 518,721 518,721 511,721 511,721 509,716 509,716 506,714 504,709 504,709 499,707 499,702 497,700 494,697 492,695 492,692 490,690 490,688 490,688 485,685 485,680 482,678 480,676 480,673 480,673 473,668 473,666 470,664 470,661 470,661 466,659 463,657 459,652 456,649 454,647 451,645 451,645 447,640 442,637 442,637 439,633 437,630 437,628 437,623 435,621 435,621 432,618 432,618 425,616 425,616 420,614 416,611 416,611 408,611 408,611 401,606 401,606 399,604 399,604 394,604 394,604 389,599 389,599 385,597 385,595 385,595 382,590 382,590 380,587 380,585 377,583 375,580 375,580 375,575 375,573 375,571 373,568 373,566 373,566 368,564 368,564 363,561 358,556 356,554 356,552 356,552 354,549 351,547 351,547 344,542 344,542 337,542 337,542 334,540 332,537 330,535 330,535 327,532 327,532 323,532 318,530 315,528 315,528 311,528 311,528 308,525 308,525 303,525 303,525 299,525 299,525 294,523 294,523 287,523 287,523 282,523 280,521 280,521 275,521 275,521 270,521 265,518 265,518 260,518 260,518 256,518 256,518 251,521 251,521 246,521 246,521 241,523 241,523 239,528 239,528 239,532 239,532 239,537 239,537 239,542 241,544 244,547 244,547 244,552 244,552 244,556 246,556 246,556 249,561 249,561 249,566 249,566 249,571 249,571 251,573 251,573 251,578 251,578 253,580 253,580 253,585 253,590 253,590 256,592 256,592 256,597 256,597 258,599 258,599 258,604 258,604 258,609 258,609 258,614 258,614 258,621 258,621 260,623 260,623 260,628 260,628 260,633 260,633 260,637 260,637 260,642 260,642 260,647 260,647 260,652 260,652 260,657 260,657 260,661 260,661 260,666 260,666 260,671 260,671 260,676 263,678 263,678 263,683 263,683 263,688 263,688 265,692 265,692 265,697 265,697 268,702 268,702 270,707 270,707 272,711 272,716 272,716 275,721 275,721 275,726 275,726 277,728 277,728 277,733 277,733 280,735 280,735 280,740 282,742 282,742 284,745 284,745 287,752 287,752 289,757 289,757 289,762 292,764 292,764 292,769 292,769 292,773 294,776 294,776 296,783 296,783 296,788 296,788 296,793 296,797 296,797 301,802 301,802 301,809 301,809 301,816 301,816 301,821 303,826 303,831 303,831 306,838 306,838 306,845 308,847 308,852 308,852 308,857 308,857 308,862 311,864 311,864 311,869 313,871 313,871 313,876 313,876 313,881 315,883 315,883 315,888 315,893 315,893 315,898 315,898 315,902 315,902 318,909 318,909 320,914 320,914 323,919 323,924 323,924 323,929 323,929 323,933 323,933 323,938 325,940 325,940 327,945 327,945 330,950 332,952 332,952 332,957 334,962 334,962 337,967 337,967 339,969 339,974 342,976 344,979 344,979 346,981 346,981 351,988 351,988 354,991 354,991 354,995 356,998 358,1000 361,1003 361,1003 363,1007 365,1010 368,1012 368,1017 368,1017 370,1019 370,1019 375,1024 377,1026 377,1026 380,1029 380,1029 382,1034 387,1038 389,1043 394,1045 394,1045 396,1050 396,1050 399,1055 401,1057 404,1060 406,1065 408,1067 411,1069 416,1074 416,1074 418,1076 420,1081 425,1086 425,1086 428,1088 430,1091 430,1091 432,1093 432,1093 435,1098 435,1098 437,1100 437,1100 439,1103 442,1103 444,1108 444,1108 447,1112 447,1112 451,1115 454,1119 456,1122 461,1127 463,1129 463,1129 466,1134 466,1134 468,1136 470,1139 473,1141 475,1146 480,1148 480,1148 482,1150 485,1153 485,1153 490,1155 490,1155 492,1158 492,1158 497,1158 501,1158 501,1158 509,1158 509,1158 513,1158 513,1158 518,1158 521,1158 521,1158 525,1158 532,1158 537,1158 540,1158 544,1158 544,1158 549,1158 549,1158 554,1158 554,1158 559,1155 559,1155 566,1155 568,1153 573,1150 573,1150 580,1150 580,1150 587,1150 587,1150 597,1150 599,1150 599,1150 604,1150 604,1150 609,1150 609,1150 614,1150 614,1150 618,1150 623,1150 628,1150 628,1150 633,1150 637,1150 637,1150 645,1150 645,1150 652,1150 657,1148 661,1148 661,1148 668,1146 668,1146 673,1146 673,1146 678,1146 678,1146 685,1146 685,1146 692,1146 697,1141 702,1141 707,1139 707,1139 711,1139 714,1136 716,1136 721,1136 723,1134 723,1134 728,1131 728,1131 735,1131 735,1131 740,1131 740,1131 745,1131 745,1131 750,1131 754,1131 754,1131 759,1131 759,1131 764,1131 766,1131 771,1131 771,1131 776,1131 776,1131 781,1129 783,1124 783,1124 785,1122 785,1119 785,1117 785,1115 785,1112 785,1110 785,1110 785,1105 785,1103 783,1100 781,1098 781,1098 773,1096 769,1091 769,1091 762,1088 757,1086 752,1084 752,1084 747,1084 742,1084 740,1081 735,1079 735,1079 731,1079 726,1076 726,1074 726,1074 721,1072 719,1069 719,1069 716,1067 714,1065 711,1062 711,1060 709,1057 707,1055 704,1053 704,1053 702,1048 697,1045 697,1043 697,1038 697,1038 695,1036 695,1036 690,1034 690,1034 688,1029 688,1029 683,1024 683,1019 683,1019 680,1017 680,1017 676,1012 676,1012 673,1007 671,1005 671,1003 671,1003 668,1000 668,1000 664,998 661,995 661,993 659,993 659,993 659,988 659,988 657,986 657,981 657,981 654,979 654,976 654,974 652,972 652,972 652,967 652,964 649,962 647,960 647,957 647,955 647,955 647,950 647,950 645,945 645,943 642,938 640,936 640,936 637,931 635,929 635,926 633,924 633,921 633,921 630,919 630,917 630,917 626,914 626,914 626,909 626,909 623,907 623,905 621,902 621,902 618,900 618,900 616,895 616,895 614,893 611,888 611,888 609,886 604,881 602,878 599,876 597,874 595,871 595,871 592,869 590,864 587,862 585,859 585,857 585,857 583,855 583,855 580,852 580,852 578,847 575,845 573,843 573,840 573,838 573,838 571,833 571,833 568,828 568,826 568,824 566,819 564,816 564,812 561,809 559,807 559,804 559,802 559,800 556,797 556,797 554,793 554,790 552,788 552,785 552,783 549,781 547,776 547,776 544,771 544,769 544,764 544,759 540,757 540,757 540,752 540,752 537,750 537,747 537,745 535,742 532,738" stroke="#f8691c" stroke-width="5" /><polygon fill="white" points="864,1604 867,1609 867,1612 867,1612 867,1619 867,1621 867,1624 867,1626 864,1628 864,1628 862,1633 859,1638 859,1640 857,1643 857,1645 857,1645 857,1650 857,1650 857,1655 857,1655 857,1659 857,1662 857,1664 857,1664 857,1669 857,1674 857,1674 857,1681 857,1683 857,1688 857,1688 857,1695 857,1695 859,1700 859,1702 859,1705 859,1705 859,1712 859,1712 862,1714 862,1714 862,1719 862,1721 862,1724 862,1724 864,1728 864,1728 864,1733 864,1733 864,1738 864,1740 864,1743 864,1743 864,1748 864,1748 864,1752 864,1752 864,1757 864,1760 864,1762 864,1762 864,1767 864,1767 864,1771 864,1771 864,1776 864,1779 864,1781 864,1781 864,1786 864,1786 864,1791 864,1791 864,1795 864,1798 864,1800 864,1802 864,1802 864,1807 864,1807 867,1812 867,1817 867,1819 867,1824 867,1824 869,1826 869,1826 869,1831 869,1831 869,1836 871,1838 871,1841 871,1841 876,1843 876,1843 881,1843 883,1841 886,1838 886,1838 886,1833 886,1833 888,1831 888,1831 888,1826 893,1824 893,1824 893,1819 893,1819 893,1814 893,1814 893,1810 893,1810 893,1805 893,1805 895,1802 895,1802 895,1798 895,1798 895,1793 898,1791 900,1788 900,1788 900,1783 902,1781 902,1781 905,1776 907,1774 907,1774 909,1771 909,1771 912,1769 912,1769 912,1764 912,1764 914,1762 914,1757 914,1757 917,1752 917,1752 917,1748 919,1745 919,1745 921,1740 924,1736 924,1736 924,1731 924,1731 926,1726 926,1726 926,1721 926,1721 929,1719 929,1719 929,1714 929,1712 929,1712 929,1707 929,1707 929,1702 929,1702 929,1697 929,1697 929,1693 929,1693 931,1690 931,1690 931,1686 931,1686 931,1681 931,1681 933,1678 933,1674 933,1674 933,1666 936,1664 936,1659 936,1659 936,1652 936,1652 936,1645 936,1645 936,1640 936,1635 936,1635 936,1631 936,1631 936,1626 936,1626 936,1621 936,1621 936,1616 936,1616 933,1609 931,1609 931,1609 929,1607 929,1607 926,1604 924,1602 921,1602 919,1602 917,1602 914,1600 912,1600 912,1600 907,1600 905,1600 902,1600 900,1600 898,1600 895,1600 893,1600 890,1600 890,1600 886,1600 881,1600 878,1600 874,1600 871,1600 867,1600 864,1604" stroke="#f8691c" stroke-width="5" /><polygon fill="white" points="564,1745 564,1740 564,1738 564,1733 564,1733 564,1726 564,1721 564,1721 564,1717 564,1717 564,1712 564,1712 564,1707 564,1707 561,1702 561,1702 561,1697 561,1697 561,1693 561,1693 561,1688 561,1688 561,1683 561,1683 561,1678 561,1678 561,1674 561,1674 561,1669 561,1669 561,1664 561,1664 559,1657 559,1657 556,1655 556,1655 556,1650 556,1650 556,1645 554,1645 554,1640 554,1640 552,1638 552,1633 552,1633 552,1628 552,1628 549,1624 549,1624 549,1619 547,1616 544,1612 544,1612 544,1607 544,1607 544,1602 542,1597 542,1595 542,1595 542,1590 540,1588 540,1588 537,1585 537,1585 535,1583 535,1583 535,1578 535,1578 532,1573 530,1571 530,1571 528,1566 528,1566 523,1559 521,1557 518,1554 516,1552 516,1552 513,1550 511,1547 511,1547 509,1542 506,1542 504,1540 501,1540 499,1540 497,1540 494,1540 492,1538 490,1538 487,1538 485,1538 482,1538 480,1535 478,1535 475,1535 473,1535 468,1535 468,1535 466,1533 463,1530 459,1530 456,1528 454,1528 451,1528 449,1528 447,1528 444,1528 442,1528 439,1528 437,1528 435,1528 430,1528 428,1528 425,1528 420,1528 416,1528 413,1530 408,1530 406,1533 401,1533 399,1535 399,1535 396,1538 394,1540 392,1540 389,1542 387,1545 385,1547 382,1547 380,1550 377,1550 377,1550 375,1552 375,1552 373,1554 370,1557 368,1557 368,1557 365,1559 363,1561 361,1564 358,1566 356,1569 356,1569 354,1573 351,1573 351,1573 351,1578 349,1581 349,1583 344,1585 344,1590 342,1592 339,1595 339,1595 334,1597 334,1597 332,1600 330,1602 327,1602 323,1604 320,1604 318,1607 313,1607 311,1607 308,1609 306,1612 303,1612 301,1612 299,1612 296,1614 294,1616 292,1616 289,1619 287,1621 284,1621 284,1624 282,1624 280,1624 277,1626 277,1626 272,1631 270,1631 270,1631 268,1635 265,1638 263,1638 260,1638 260,1640 258,1640 258,1643 256,1645 253,1647 253,1647 251,1652 251,1652 249,1655 246,1659 244,1659 244,1662 241,1664 239,1669 237,1669 237,1669 234,1674 234,1674 232,1678 232,1683 229,1686 229,1690 229,1690 229,1695 229,1695 229,1700 229,1702 229,1705 229,1705 229,1709 229,1709 229,1714 229,1714 229,1719 229,1721 229,1726 229,1726 229,1731 229,1731 229,1736 229,1738 229,1740 229,1743 229,1743 229,1748 229,1748 229,1752 229,1752 229,1757 229,1760 229,1762 229,1762 229,1767 229,1767 229,1774 229,1776 229,1781 229,1781 232,1783 232,1788 232,1788 232,1793 234,1795 237,1798 239,1800 241,1805 244,1810 244,1810 249,1812 251,1817 251,1817 253,1819 253,1819 258,1824 258,1824 260,1826 263,1829 265,1831 268,1833 268,1836 270,1838 272,1841 275,1843 275,1843 277,1848 277,1848 280,1850 282,1853 284,1855 284,1855 289,1857 294,1857 294,1857 301,1857 301,1857 306,1857 311,1857 315,1857 320,1857 320,1857 325,1857 325,1857 330,1857 330,1857 334,1857 334,1857 339,1857 344,1857 344,1857 349,1857 349,1857 354,1857 358,1857 358,1857 363,1857 363,1857 368,1857 373,1857 373,1857 375,1855 380,1853 380,1853 382,1850 382,1850 387,1848 387,1848 392,1845 396,1843 399,1841 399,1841 401,1838 406,1836 408,1833 408,1833 411,1831 416,1831 418,1829 420,1826 425,1824 430,1824 430,1824 437,1819 437,1819 442,1817 442,1817 447,1817 447,1817 449,1812 449,1812 454,1810 459,1807 459,1807 461,1805 466,1802 466,1802 470,1802 470,1802 475,1800 478,1798 478,1798 482,1798 482,1798 487,1795 487,1795 492,1795 492,1795 497,1793 497,1793 501,1793 504,1791 509,1791 509,1791 513,1788 513,1788 518,1788 521,1786 521,1786 528,1783 528,1783 535,1781 535,1781 540,1781 542,1776 542,1776 547,1774 549,1769 549,1769 554,1769 554,1769 556,1767 556,1767 561,1762 561,1762 564,1757 564,1757 564,1752 564,1745" stroke="#f8691c" stroke-width="5" /><polygon fill="white" points="129,1421 124,1421 120,1421 117,1421 113,1423 113,1425 110,1428 108,1430 108,1430 108,1435 108,1435 108,1440 108,1440 105,1445 105,1447 105,1449 105,1449 103,1454 103,1454 103,1459 101,1461 101,1464 98,1464 96,1466 93,1468 91,1468 86,1471 82,1473 82,1473 79,1476 79,1476 77,1480 77,1483 72,1487 72,1490 72,1490 72,1495 72,1495 72,1502 72,1504 72,1507 72,1509 72,1509 72,1514 72,1514 72,1519 72,1519 72,1523 72,1526 72,1528 72,1528 72,1533 72,1533 74,1540 74,1545 74,1547 77,1552 77,1552 79,1554 79,1554 79,1559 79,1561 79,1561 84,1566 84,1566 86,1569 86,1569 86,1573 86,1573 89,1578 89,1581 91,1583 93,1588 93,1588 93,1592 93,1592 93,1597 96,1602 96,1604 98,1609 98,1609 101,1612 101,1616 101,1616 101,1621 103,1626 103,1631 103,1631 103,1635 108,1640 108,1645 108,1645 110,1650 110,1650 110,1655 115,1657 115,1659 117,1664 117,1664 122,1666 124,1669 127,1671 127,1671 132,1674 132,1674 136,1676 139,1678 144,1678 144,1678 148,1678 151,1683 151,1683 156,1683 156,1683 160,1683 160,1683 165,1683 170,1683 170,1683 175,1683 175,1683 179,1683 179,1683 184,1683 184,1683 189,1683 189,1683 191,1681 191,1681 196,1678 196,1678 198,1676 198,1676 201,1674 203,1671 203,1671 206,1666 208,1664 210,1662 210,1662 215,1657 215,1657 218,1655 220,1650 220,1650 222,1647 222,1647 225,1645 227,1640 229,1638 229,1638 229,1633 229,1633 232,1631 232,1631 234,1626 234,1621 234,1621 237,1619 237,1619 239,1614 241,1609 241,1609 244,1607 246,1602 246,1602 249,1597 251,1595 251,1595 251,1590 251,1590 253,1585 253,1585 256,1581 256,1581 256,1576 258,1571 258,1571 258,1566 258,1566 258,1561 258,1561 258,1557 258,1557 258,1552 258,1552 260,1547 260,1547 260,1542 260,1542 260,1538 260,1538 263,1533 263,1528 265,1526 265,1526 265,1521 265,1521 268,1516 272,1514 272,1514 275,1511 275,1511 277,1509 277,1509 280,1507 280,1507 280,1502 282,1499 282,1497 282,1497 282,1492 282,1492 282,1487 282,1487 282,1483 282,1478 280,1476 280,1476 277,1473 277,1473 277,1468 277,1468 275,1464 275,1464 272,1459 270,1456 270,1456 270,1452 268,1449 268,1449 265,1447 265,1447 263,1440 260,1437 260,1437 260,1433 258,1433 258,1433 258,1428 258,1428 256,1425 256,1425 253,1423 253,1423 251,1418 249,1418 244,1416 241,1414 239,1414 234,1411 232,1411 229,1411 227,1411 225,1411 220,1411 218,1411 215,1411 213,1411 210,1411 206,1409 203,1409 201,1409 198,1406 194,1406 191,1406 189,1406 187,1406 184,1406 182,1406 177,1406 175,1406 172,1406 170,1406 167,1406 165,1406 163,1406 160,1406 158,1406 156,1406 153,1406 151,1406 148,1406 146,1406 144,1406 141,1406 136,1406 134,1406 132,1409 129,1409 127,1409 129,1421" stroke="#f8691c" stroke-width="5" /><polygon fill="white" points="568,1306 561,1304 559,1304 556,1304 552,1299 549,1299 547,1299 544,1299 542,1297 537,1297 530,1289 528,1289 525,1289 523,1287 518,1285 516,1282 513,1282 511,1282 509,1282 506,1280 501,1278 499,1278 497,1278 492,1278 487,1280 485,1280 482,1285 480,1285 480,1285 478,1287 478,1289 475,1289 473,1292 473,1297 470,1297 470,1297 468,1301 468,1301 468,1306 466,1311 463,1311 463,1316 463,1316 461,1320 461,1320 461,1325 461,1328 461,1330 456,1335 456,1335 456,1340 456,1340 456,1344 456,1347 456,1349 456,1351 456,1351 456,1356 459,1361 461,1363 463,1368 466,1371 468,1373 470,1375 473,1380 478,1385 478,1385 480,1387 482,1390 482,1390 487,1392 490,1397 492,1399 494,1402 494,1402 499,1406 499,1406 501,1409 506,1411 506,1411 509,1416 511,1418 513,1421 513,1421 516,1425 516,1428 516,1428 521,1433 521,1433 525,1435 525,1435 530,1442 532,1445 532,1447 537,1449 537,1449 540,1452 542,1454 542,1454 547,1456 549,1459 549,1459 554,1464 556,1466 556,1468 559,1471 561,1473 564,1476 566,1478 571,1483 573,1485 578,1487 578,1490 578,1490 580,1492 580,1492 585,1497 585,1497 587,1499 587,1499 590,1502 590,1504 592,1507 595,1509 599,1514 599,1514 602,1516 602,1521 609,1526 609,1528 611,1530 611,1530 611,1535 616,1538 618,1542 618,1547 618,1547 623,1550 623,1554 626,1559 628,1561 630,1564 633,1566 633,1566 633,1571 633,1571 635,1573 635,1573 637,1576 637,1576 637,1581 637,1583 640,1585 640,1585 642,1590 642,1590 642,1595 645,1597 645,1597 645,1602 647,1604 647,1607 647,1607 649,1612 649,1612 652,1616 652,1616 652,1621 654,1624 654,1626 654,1626 657,1631 657,1631 659,1633 659,1633 661,1638 661,1640 664,1645 666,1650 668,1652 668,1652 668,1657 668,1659 668,1659 671,1662 671,1662 673,1664 676,1666 676,1666 676,1671 676,1671 676,1676 676,1678 678,1681 678,1683 678,1683 680,1688 680,1688 680,1693 683,1695 683,1695 683,1700 683,1702 683,1705 683,1705 685,1707 685,1707 685,1714 685,1714 688,1717 688,1721 690,1724 690,1728 692,1731 692,1731 700,1731 700,1731 707,1731 707,1731 714,1731 714,1731 721,1731 721,1731 726,1731 726,1731 731,1731 731,1731 735,1731 735,1731 740,1731 740,1731 745,1731 745,1731 750,1731 750,1731 754,1731 754,1731 759,1731 759,1731 764,1731 764,1731 769,1731 769,1731 773,1728 776,1726 776,1726 778,1724 778,1724 781,1721 781,1721 785,1719 785,1719 788,1717 788,1717 790,1712 790,1712 793,1709 795,1707 795,1707 795,1702 795,1702 797,1697 797,1697 797,1693 797,1693 800,1690 800,1690 800,1686 800,1686 802,1683 802,1683 802,1678 804,1676 804,1676 807,1671 809,1666 809,1666 809,1662 809,1662 812,1659 812,1659 814,1655 814,1655 814,1647 814,1647 816,1643 816,1643 816,1638 819,1635 819,1635 819,1631 821,1628 821,1628 821,1624 824,1619 824,1619 824,1614 824,1614 824,1609 824,1609 824,1604 824,1604 824,1600 824,1600 824,1595 824,1590 824,1590 824,1585 824,1585 824,1581 824,1581 824,1576 824,1576 824,1571 824,1566 821,1564 821,1564 821,1559 821,1559 821,1554 819,1554 819,1550 819,1542 819,1542 814,1535 814,1535 814,1528 812,1526 812,1519 812,1519 807,1514 807,1514 807,1509 807,1509 804,1504 802,1502 800,1497 797,1495 797,1495 795,1490 795,1490 795,1483 790,1480 790,1473 790,1473 788,1471 788,1471 785,1466 785,1466 783,1464 783,1464 783,1456 783,1456 781,1454 781,1454 781,1449 778,1447 776,1445 776,1445 776,1440 773,1437 771,1435 771,1435 769,1430 769,1430 766,1425 764,1423 762,1421 762,1421 759,1416 757,1414 754,1411 752,1409 752,1409 750,1404 747,1402 747,1402 745,1399 745,1399 742,1394 740,1392 740,1392 738,1390 735,1385 733,1385 733,1385 731,1380 731,1380 728,1378 726,1373 723,1373 721,1371 716,1366 716,1366 711,1366 707,1363 704,1363 702,1359 697,1359 697,1359 692,1356 690,1351 685,1351 685,1351 683,1349 680,1349 680,1349 678,1344 678,1344 671,1344 671,1344 668,1342 664,1342 661,1342 659,1337 657,1337 657,1337 649,1335 645,1335 642,1330 640,1330 637,1328 635,1328 633,1328 630,1328 628,1328 626,1325 621,1325 618,1323 614,1323 611,1320 609,1320 602,1320 599,1318 597,1318 595,1316 592,1316 587,1313 583,1313 583,1313 580,1309 568,1306" stroke="#f8691c" stroke-width="5" /></svg>