<?xml version="1.0" encoding="utf-8" ?>
<svg baseProfile="tiny" height="2048" version="1.2" width="2048" xmlns="http://www.w3.org/2000/svg" xmlns:ev="http://www.w3.org/2001/xml-events" xmlns:xlink="http://www.w3.org/1999/xlink"><defs /><polygon fill="none" points="537,742 528,733 523,733 513,728 509,723 509,719 504,714 504,714 499,709 499,704 494,700 494,695 485,690 485,685 480,680 475,671 475,666 475,666 470,661 466,657 456,652 456,647 451,642 447,637 447,637 437,633 437,633 428,633 428,628 423,623 418,618 413,618 408,614 408,609 404,609 399,604 394,604 394,599 394,599 385,599 375,599 370,595 361,590 361,590 351,580 346,580 346,580 337,580 337,575 337,575 327,571 323,566 323,566 313,561 308,556 308,556 299,556 299,552 299,552 289,552 289,552 280,552 280,552 275,547 275,547 265,542 260,537 260,537 256,532 251,528 251,528 241,523 241,523 232,523 232,523 222,523 222,523 213,523 213,523 203,523 198,523 198,523 189,523 189,523 179,523 179,523 170,523 170,523 160,523 160,523 156,528 156,528 151,537 151,537 151,547 151,547 151,556 151,556 151,566 151,566 151,575 151,575 151,585 151,585 160,595 160,595 165,604 170,609 170,609 175,618 175,618 179,623 179,623 184,628 184,628 194,628 194,628 194,637 194,637 203,637 208,642 208,642 213,647 213,647 218,657 222,661 222,661 227,666 227,666 232,671 232,671 237,676 241,680 246,685 246,685 251,695 256,700 256,700 260,704 260,704 265,709 270,719 270,719 275,723 275,723 280,733 284,738 284,738 289,742 294,747 299,752 299,752 303,757 303,757 308,762 308,762 318,766 323,771 323,771 327,776 327,776 337,776 337,776 342,781 351,785 351,785 361,785 361,785 365,790 365,790 375,790 375,790 385,795 385,795 394,795 394,795 399,800 399,800 408,800 408,800 418,800 423,804 423,804 437,804 442,809 451,809 451,809 466,809 466,809 480,809 480,809 494,809 494,809 509,809 513,804 513,804 518,800 518,800 523,795 528,790 528,785 528,781 528,776 528,771 528,766 528,762 528,757 528,752 528,747 537,742" stroke="#f8691c" stroke-width="5" /><polygon fill="none" points="685,518 676,513 671,509 671,509 661,499 661,499 652,494 647,490 647,485 647,485 637,485 633,480 628,480 628,480 618,480 618,480 609,480 609,480 599,480 590,470 590,470 580,466 580,466 571,466 571,466 556,461 556,456 556,456 547,451 547,447 547,442 542,437 542,432 542,428 542,423 542,418 537,408 537,404 537,399 537,394 537,389 532,385 528,380 528,375 528,370 528,365 523,361 523,356 523,351 523,351 518,346 518,342 513,337 513,332 513,327 513,323 509,318 509,313 504,308 504,308 499,303 494,299 494,299 485,294 475,294 475,294 466,284 456,284 456,284 447,280 437,280 428,270 428,270 418,265 413,265 404,256 394,256 394,251 385,251 380,246 380,241 375,237 375,237 365,237 361,227 351,227 337,222 332,218 327,218 327,218 318,218 308,218 308,213 308,213 299,213 299,208 299,208 289,203 289,203 275,198 275,198 260,194 260,194 251,194 251,194 241,194 241,194 232,189 232,189 222,189 222,189 213,189 208,184 198,184 198,184 184,184 179,184 170,184 170,184 160,184 151,184 151,184 141,184 136,189 132,194 132,194 122,198 117,203 113,203 108,208 103,213 103,213 93,218 93,218 89,222 89,222 84,227 79,232 74,232 74,232 70,241 70,241 60,241 55,246 55,246 51,251 51,251 41,251 36,256 36,256 31,260 27,265 27,265 22,270 22,270 22,280 22,280 17,284 17,284 17,294 17,294 17,303 17,303 22,308 27,313 27,313 36,323 36,323 46,323 55,327 55,327 65,327 70,337 70,337 79,337 79,337 89,337 89,337 103,342 103,342 113,342 122,342 122,342 136,342 136,342 146,342 146,342 156,342 156,342 165,342 165,342 179,351 179,351 189,351 189,351 198,351 208,351 208,351 218,351 222,356 222,356 232,356 232,356 241,361 251,361 251,361 260,361 265,365 265,365 280,365 289,365 294,370 299,375 299,375 308,375 313,380 313,380 323,380 327,385 327,385 337,385 337,385 346,385 356,389 356,389 361,394 361,394 370,394 361,394 361,394 346,394 337,394 337,394 327,394 327,394 318,394 318,394 308,394 308,394 299,394 299,394 289,394 289,394 280,399 280,399 280,408 280,408 280,418 280,418 280,428 280,428 280,442 284,447 284,447 289,451 294,456 299,461 299,461 308,461 313,466 313,466 327,470 327,470 337,470 337,470 346,470 346,470 356,470 356,470 370,470 370,470 380,470 380,470 394,470 399,475 399,475 408,480 408,480 418,485 418,485 428,485 432,490 437,494 442,499 442,499 451,504 451,504 456,509 461,513 466,518 470,523 475,528 485,532 485,532 485,542 485,542 490,547 490,547 499,552 499,552 509,552 509,552 518,552 518,552 532,556 532,556 542,556 542,556 552,556 552,556 561,556 561,556 575,556 575,556 585,556 595,556 599,552 609,552 618,552 618,552 628,552 637,552 647,547 657,542 661,537 671,532 676,528 676,528 695,523 700,518 685,518" stroke="#f8691c" stroke-width="5" /><polygon fill="none" points="1024,1119 1024,1110 1024,1105 1024,1100 1024,1096 1024,1091 1024,1086 1024,1081 1024,1076 1024,1072 1024,1067 1024,1062 1024,1057 1024,1048 1014,1043 1014,1038 1010,1038 1005,1034 1000,1029 995,1024 991,1019 991,1019 981,1014 976,1010 972,1005 972,1005 962,1005 962,1005 952,991 943,991 943,986 943,986 929,981 924,976 924,972 924,972 914,972 914,972 909,967 909,967 900,962 900,962 890,957 890,957 881,957 871,957 871,957 862,948 857,943 857,943 847,938 847,933 843,933 843,933 833,929 833,929 824,929 824,929 819,924 814,924 814,919 814,919 800,914 795,914 795,914 785,914 781,909 776,909 776,909 766,905 757,905 757,905 742,900 738,900 728,900 728,900 719,900 719,900 709,900 709,900 700,900 700,900 690,900 690,900 680,900 680,900 671,900 661,900 661,900 657,905 657,905 647,909 647,909 637,919 637,919 633,924 633,924 633,933 633,933 633,943 633,943 633,952 633,952 642,957 647,962 652,972 652,972 657,976 657,976 666,981 671,986 671,986 676,991 680,995 680,995 685,1000 685,1000 690,1010 690,1010 700,1010 704,1014 709,1019 714,1024 714,1024 723,1024 728,1029 738,1034 738,1034 742,1038 742,1038 747,1043 752,1048 757,1053 762,1057 766,1062 766,1062 771,1067 771,1067 781,1067 785,1072 785,1072 790,1076 790,1076 800,1081 800,1081 809,1081 809,1081 819,1091 819,1091 833,1091 833,1091 843,1096 843,1096 852,1096 852,1096 857,1100 857,1100 867,1105 867,1105 876,1105 876,1105 881,1110 886,1115 886,1115 895,1115 895,1115 905,1115 905,1115 914,1115 914,1115 924,1115 924,1115 933,1115 938,1119 938,1119 948,1119 948,1119 952,1124 952,1124 962,1124 962,1124 972,1129 972,1129 981,1129 981,1129 991,1129 991,1129 1000,1129 1000,1129 1010,1129 1010,1129 1019,1129 1029,1129 1024,1119" stroke="#f8691c" stroke-width="5" /><polygon fill="none" points="1983,1573 1974,1568 1969,1568 1969,1563 1969,1563 1964,1558 1955,1554 1950,1549 1945,1544 1940,1539 1940,1539 1935,1535 1931,1530 1926,1525 1926,1520 1921,1516 1921,1516 1921,1506 1921,1501 1916,1496 1916,1496 1912,1487 1912,1482 1907,1477 1902,1473 1902,1468 1902,1468 1897,1463 1897,1463 1888,1458 1883,1453 1873,1453 1869,1449 1864,1444 1854,1444 1854,1439 1850,1439 1850,1439 1840,1439 1835,1439 1830,1439 1830,1439 1821,1439 1821,1439 1811,1439 1807,1444 1807,1444 1802,1458 1792,1468 1792,1468 1788,1473 1783,1482 1778,1487 1778,1487 1778,1496 1773,1501 1768,1506 1764,1511 1764,1511 1759,1520 1759,1520 1754,1530 1749,1535 1749,1535 1740,1544 1735,1544 1725,1544 1725,1544 1706,1549 1706,1549 1697,1549 1692,1549 1678,1554 1668,1554 1668,1554 1654,1558 1649,1563 1649,1563 1640,1563 1630,1568 1625,1573 1625,1573 1616,1578 1606,1578 1606,1578 1601,1587 1601,1587 1597,1592 1592,1597 1587,1601 1587,1601 1582,1611 1582,1611 1582,1620 1578,1625 1578,1625 1578,1635 1573,1640 1573,1640 1573,1649 1573,1649 1573,1659 1573,1659 1573,1668 1573,1668 1573,1678 1573,1678 1573,1692 1573,1692 1573,1702 1573,1702 1573,1711 1573,1711 1573,1721 1578,1725 1578,1725 1578,1735 1578,1735 1578,1745 1578,1754 1578,1754 1578,1764 1578,1764 1578,1773 1578,1773 1578,1783 1578,1783 1578,1792 1578,1792 1578,1802 1578,1802 1578,1811 1578,1811 1578,1821 1578,1830 1578,1830 1578,1840 1578,1840 1578,1850 1578,1850 1578,1859 1578,1859 1582,1864 1582,1864 1582,1878 1587,1888 1592,1892 1592,1892 1592,1902 1592,1912 1592,1912 1597,1916 1597,1916 1606,1926 1611,1931 1616,1935 1620,1940 1625,1945 1630,1945 1635,1955 1644,1955 1644,1955 1654,1959 1654,1959 1663,1959 1668,1964 1668,1964 1683,1964 1683,1964 1697,1964 1702,1969 1702,1969 1711,1969 1721,1969 1725,1974 1725,1974 1740,1974 1749,1974 1749,1974 1764,1974 1764,1974 1768,1978 1773,1983 1773,1983 1778,1988 1778,1988 1792,1988 1797,1993 1802,2002 1802,2002 1811,2002 1826,2007 1830,2012 1830,2012 1840,2012 1840,2012 1845,2017 1845,2017 1854,2017 1864,2017 1864,2017 1883,2017 1897,2017 1912,2017 1921,2017 1931,2017 1931,2017 1940,2017 1940,2017 1959,2017 1959,2017 1974,2017 1974,2017 1988,2017 1997,2017 2002,2012 2002,2012 2012,2007 2017,2002 2021,1997 2026,1993 2026,1988 2026,1983 2026,1978 2026,1974 2026,1969 2026,1964 2026,1964 2026,1955 2026,1950 2026,1940 2026,1935 2026,1931 2026,1926 2026,1916 2026,1912 2026,1902 2026,1902 2021,1897 2021,1892 2021,1888 2021,1888 2021,1878 2021,1873 2021,1869 2021,1869 2021,1859 2021,1854 2021,1850 2021,1845 2021,1835 2021,1826 2021,1816 2021,1807 2021,1807 2021,1797 2021,1788 2021,1783 2021,1778 2021,1773 2021,1764 2021,1759 2021,1754 2021,1749 2021,1745 2021,1740 2021,1735 2021,1730 2021,1730 2021,1721 2021,1716 2021,1711 2021,1702 2021,1697 2021,1687 2021,1683 2021,1678 2021,1668 2021,1663 2021,1659 2021,1654 2021,1654 2021,1644 2021,1640 2021,1635 2021,1630 2021,1625 2021,1620 2021,1616 2021,1611 2021,1611 2021,1601 2021,1597 2017,1587 2017,1587 2012,1582 2007,1582 2007,1582 2002,1578 1993,1563 1993,1558 1983,1573" stroke="#f8691c" stroke-width="5" /><polygon fill="none" points="1850,895 1840,895 1835,895 1830,895 1826,900 1826,900 1816,905 1811,905 1811,905 1807,909 1802,914 1797,914 1792,914 1783,919 1773,924 1773,924 1768,929 1759,929 1754,929 1754,929 1749,933 1749,933 1745,938 1745,938 1735,943 1735,943 1725,943 1725,943 1716,943 1711,948 1711,948 1697,952 1697,952 1692,957 1683,957 1678,957 1668,957 1663,962 1654,967 1654,967 1640,972 1635,972 1625,972 1625,972 1616,976 1616,976 1606,976 1597,976 1597,976 1592,981 1592,981 1582,981 1578,981 1578,981 1568,981 1563,986 1558,986 1558,986 1549,986 1549,986 1539,986 1539,986 1535,991 1525,995 1520,1000 1516,1005 1516,1005 1511,1010 1506,1014 1506,1014 1506,1024 1506,1024 1506,1034 1506,1034 1506,1043 1506,1043 1506,1053 1506,1053 1511,1062 1511,1062 1516,1067 1516,1067 1520,1076 1525,1081 1525,1081 1530,1091 1535,1096 1535,1096 1539,1100 1539,1100 1554,1110 1554,1110 1568,1115 1568,1115 1573,1119 1578,1124 1578,1124 1587,1124 1597,1129 1601,1134 1611,1134 1625,1139 1630,1139 1635,1143 1640,1148 1640,1148 1649,1148 1649,1148 1659,1153 1663,1158 1668,1162 1668,1162 1678,1167 1678,1167 1687,1177 1687,1177 1692,1181 1692,1181 1702,1191 1702,1191 1706,1196 1706,1196 1716,1201 1716,1201 1721,1210 1725,1215 1725,1215 1735,1220 1735,1220 1745,1229 1749,1234 1749,1234 1759,1234 1768,1239 1778,1244 1783,1248 1792,1248 1807,1263 1811,1267 1821,1267 1826,1272 1835,1277 1845,1282 1850,1291 1859,1291 1869,1291 1869,1291 1873,1301 1883,1306 1888,1310 1897,1310 1902,1315 1907,1325 1907,1325 1912,1329 1912,1329 1921,1329 1921,1329 1926,1334 1926,1334 1931,1344 1940,1344 1950,1353 1959,1358 1969,1358 1978,1363 1978,1363 1983,1368 1988,1372 1988,1372 1997,1382 2007,1387 2007,1387 2026,1391 2026,1391 2040,1391 2040,1391 2045,1387 2045,1382 2045,1372 2042,1368 2042,1363 2042,1358 2042,1353 2042,1344 2042,1339 2042,1334 2042,1329 2042,1325 2042,1320 2042,1310 2042,1306 2042,1301 2042,1301 2042,1291 2042,1282 2042,1272 2042,1267 2042,1258 2042,1248 2042,1244 2042,1244 2042,1234 2042,1220 2042,1210 2042,1205 2042,1201 2042,1196 2042,1186 2042,1181 2042,1177 2042,1162 2042,1158 2042,1153 2042,1143 2042,1134 2042,1129 2042,1124 2042,1119 2042,1115 2042,1110 2042,1105 2042,1100 2042,1091 2042,1086 2042,1081 2042,1076 2042,1072 2042,1062 2042,1057 2042,1053 2042,1048 2042,1043 2042,1029 2042,1024 2042,1019 2042,1014 2042,1010 2042,1005 2042,995 2042,986 2042,981 2042,976 2042,972 2042,967 2042,962 2042,957 2042,952 2042,952 2042,948 2042,948 2042,943 2042,943 2045,938 2045,938 2036,933 2031,933 2026,933 2026,933 2017,924 2007,924 2007,924 1993,919 1983,914 1969,914 1969,909 1959,909 1955,905 1950,905 1950,905 1940,905 1940,905 1931,905 1931,905 1921,905 1921,905 1912,905 1912,905 1902,905 1902,905 1888,905 1888,905 1878,905 1873,905 1869,905 1869,905 1859,905 1859,905 1850,905 1840,905 1850,895" stroke="#f8691c" stroke-width="5" /><polygon fill="none" points="900,313 890,313 886,313 886,313 876,313 876,313 867,313 867,313 857,313 857,313 847,313 843,313 838,318 833,318 833,318 819,323 814,327 804,327 804,327 795,332 795,332 790,337 790,337 781,342 776,342 776,342 766,342 766,342 757,342 747,342 747,342 733,342 733,342 719,342 719,342 709,342 709,342 700,342 695,337 690,332 685,327 685,327 680,323 676,318 671,313 671,313 666,303 657,299 657,294 657,294 647,289 642,280 637,275 637,270 637,270 628,265 628,260 628,256 628,251 623,241 623,237 623,232 623,227 623,222 623,218 623,213 623,208 623,203 623,198 623,194 623,189 623,184 623,175 623,170 623,160 623,156 623,146 628,141 628,136 628,136 633,132 637,127 637,127 647,122 657,117 657,113 657,113 666,108 666,108 671,103 671,103 676,98 676,98 685,98 685,98 690,93 690,93 704,89 714,89 719,84 719,84 728,84 728,84 738,84 738,79 738,79 747,79 752,74 752,74 762,74 762,70 762,70 771,70 771,70 781,70 781,70 790,70 790,70 800,70 800,70 809,70 809,70 819,70 819,70 828,70 828,70 838,70 838,70 847,70 857,74 857,84 862,89 867,103 867,103 876,108 876,108 876,117 876,117 876,127 881,132 881,132 881,141 881,141 881,151 881,151 881,160 881,170 881,170 881,184 881,184 881,194 881,194 881,203 881,203 881,213 881,213 881,222 881,222 881,232 881,232 881,241 881,241 881,251 881,251 881,260 881,260 881,270 881,270 881,280 881,280 881,294 881,294 881,303 881,303 881,313 881,323 881,323 900,313" stroke="#f8691c" stroke-width="5" /></svg>