<?xml version="1.0" encoding="utf-8" ?>
<svg baseProfile="tiny" height="2048" version="1.2" width="2048" xmlns="http://www.w3.org/2000/svg" xmlns:ev="http://www.w3.org/2001/xml-events" xmlns:xlink="http://www.w3.org/1999/xlink"><defs /><polygon fill="none" points="1833,568 1826,573 1826,575 1826,575 1823,578 1819,580 1819,580 1814,583 1814,583 1809,583 1804,583 1802,585 1797,585 1797,585 1795,587 1792,590 1792,590 1788,590 1785,592 1783,592 1783,592 1778,592 1776,592 1773,595 1771,595 1768,597 1766,597 1766,597 1761,597 1759,597 1759,597 1754,597 1754,597 1752,599 1749,599 1749,599 1745,599 1745,599 1742,602 1742,602 1737,604 1737,604 1733,606 1730,609 1728,611 1728,611 1723,616 1721,618 1721,618 1718,621 1718,621 1716,623 1716,623 1711,630 1711,630 1711,635 1711,635 1709,637 1709,637 1709,642 1709,642 1709,647 1706,649 1706,649 1706,654 1706,654 1706,659 1706,659 1706,664 1706,664 1706,668 1706,668 1706,676 1706,676 1711,680 1711,680 1714,683 1714,683 1718,688 1718,688 1721,690 1721,690 1725,692 1728,695 1728,695 1733,695 1733,695 1735,697 1735,697 1740,697 1740,697 1745,697 1747,702 1747,702 1752,702 1752,702 1756,702 1756,702 1761,702 1761,702 1766,702 1766,702 1771,702 1776,702 1776,702 1780,702 1780,702 1785,702 1785,702 1790,702 1790,702 1795,702 1799,700 1799,700 1804,695 1804,695 1811,692 1811,692 1816,692 1816,692 1821,690 1821,688 1821,688 1826,685 1828,683 1828,683 1830,680 1833,678 1833,678 1835,673 1838,671 1840,668 1840,668 1845,666 1847,664 1847,664 1850,661 1850,661 1854,659 1854,659 1857,657 1857,657 1861,654 1861,654 1864,652 1864,652 1869,652 1869,649 1869,649 1871,647 1873,645 1873,645 1876,642 1878,640 1881,637 1881,637 1883,635 1883,635 1885,633 1888,630 1890,628 1890,628 1892,623 1892,621 1892,621 1897,618 1897,618 1897,614 1897,611 1900,609 1902,606 1902,606 1904,604 1904,602 1904,602 1907,597 1909,595 1909,592 1912,590 1912,590 1916,587 1916,583 1916,583 1921,580 1924,578 1924,578 1926,573 1926,571 1928,568 1928,568 1931,566 1931,564 1931,561 1931,561 1935,559 1938,556 1938,554 1938,552 1938,552 1940,547 1940,544 1943,542 1943,542 1943,537 1943,535 1943,532 1943,532 1943,528 1943,525 1943,523 1940,523 1938,521 1935,518 1933,516 1933,516 1928,516 1928,516 1924,516 1924,516 1919,516 1916,518 1916,518 1912,521 1907,525 1904,528 1902,528 1902,528 1897,532 1897,532 1892,535 1890,540 1890,540 1885,540 1881,542 1876,542 1873,544 1873,544 1871,547 1869,549 1869,549 1861,552 1859,552 1859,552 1857,556 1857,556 1852,561 1852,561 1847,564 1847,564 1842,566 1842,566 1838,568 1838,568 1830,575 1830,575 1826,575 1826,575 1833,568" stroke="#f8691c" stroke-width="5" /><polygon fill="none" points="475,349 482,351 485,351 487,349 490,346 490,346 492,344 492,344 497,344 497,344 499,342 499,339 499,339 501,337 501,337 504,334 506,332 506,332 509,330 511,327 513,325 513,325 516,323 516,323 518,320 518,320 521,318 523,315 525,313 525,313 528,311 528,308 530,306 532,301 532,299 532,299 532,294 532,292 532,289 532,289 532,284 532,282 532,280 532,275 532,275 532,270 532,268 530,263 530,260 525,258 525,258 523,256 521,251 518,249 516,249 513,246 511,244 509,241 504,241 504,239 501,237 499,234 497,234 494,232 490,229 490,229 487,225 487,225 482,225 478,222 475,220 473,220 470,218 470,218 463,218 463,218 459,218 454,215 454,213 454,213 449,213 449,213 444,213 444,213 442,210 439,210 435,210 435,210 428,206 428,206 420,206 418,206 413,206 413,206 408,206 408,206 404,206 401,206 399,206 396,206 396,206 392,206 392,206 385,206 385,206 380,208 377,208 375,208 375,208 370,208 370,208 368,210 368,210 363,213 361,213 358,213 356,213 356,213 351,215 346,218 344,220 342,220 339,220 339,220 337,222 337,222 334,225 334,225 332,227 332,227 327,229 325,232 323,234 320,234 320,234 318,237 315,241 315,241 313,244 308,246 306,249 303,251 301,251 299,253 296,256 296,256 294,258 294,258 292,260 289,263 287,268 284,270 282,272 282,272 280,275 280,275 280,280 277,282 277,282 277,287 277,287 272,292 272,292 272,296 272,296 272,301 272,301 272,306 272,306 272,311 272,311 272,315 275,318 275,318 277,323 280,325 282,327 282,327 284,332 287,334 292,337 294,339 294,339 299,342 299,342 303,342 306,344 308,346 311,349 311,349 315,349 315,349 320,349 320,349 325,349 325,349 332,349 332,349 337,349 342,349 346,349 354,349 361,349 365,351 365,351 368,354 368,354 373,354 373,354 377,354 377,354 382,354 387,354 387,354 392,354 392,354 396,354 396,354 401,354 401,354 406,354 406,354 411,354 411,354 418,354 418,354 425,354 425,354 430,354 430,354 435,354 435,354 439,354 439,354 444,354 444,354 449,354 449,354 454,354 454,354 459,354 459,354 466,354 468,351 468,349 475,349" stroke="#f8691c" stroke-width="5" /><polygon fill="none" points="745,184 740,184 738,184 738,184 733,184 728,184 728,184 721,187 721,187 716,189 711,189 709,189 709,189 704,191 700,191 695,194 690,196 688,196 683,198 683,198 680,201 676,201 673,203 671,203 666,203 664,206 659,208 659,208 654,208 649,208 649,208 645,208 645,208 642,210 642,210 637,210 635,210 633,210 630,210 630,210 628,215 623,215 623,215 618,218 618,218 614,218 611,218 609,220 606,222 604,225 604,225 599,227 597,229 592,232 592,232 587,237 587,237 587,241 585,244 585,249 585,249 585,256 585,256 585,263 585,263 585,270 585,270 585,275 585,275 585,280 585,280 585,284 585,284 585,289 583,292 580,294 580,294 578,296 575,299 573,301 571,301 571,301 568,306 566,308 566,308 566,313 566,313 564,315 564,315 564,320 564,320 564,325 564,325 564,332 564,332 564,337 564,337 564,342 564,342 566,344 568,346 571,349 571,349 573,351 573,351 578,351 580,354 580,354 585,354 585,354 592,356 592,356 599,356 599,356 604,356 604,356 609,356 614,356 614,356 618,356 618,356 623,354 623,354 626,351 628,349 628,349 633,346 637,346 637,346 640,342 642,339 642,339 645,337 645,337 647,334 647,334 649,332 649,330 649,330 654,327 654,323 657,320 659,318 659,318 661,313 661,313 664,311 664,311 671,311 671,311 676,311 676,311 680,311 685,311 690,311 697,311 707,313 707,313 714,315 714,315 719,315 719,315 723,315 723,315 728,315 728,315 733,315 733,315 740,315 742,318 750,318 754,318 754,318 764,318 764,318 771,318 771,318 778,318 778,318 785,318 785,318 790,318 790,318 795,318 795,318 800,318 804,318 804,318 809,318 809,318 814,318 814,318 821,318 824,315 824,315 828,315 828,315 833,313 838,313 840,311 843,308 845,306 845,306 850,306 855,303 857,301 862,299 862,299 867,299 867,299 871,299 874,296 876,294 876,294 881,294 883,292 883,292 888,292 888,292 893,292 895,289 898,287 898,287 902,287 902,287 905,284 905,284 909,282 914,280 914,280 917,277 917,277 919,272 921,270 921,268 921,268 921,263 921,258 921,253 924,251 924,249 924,249 924,244 924,241 924,239 924,239 924,234 924,232 924,229 924,229 924,225 924,222 921,220 921,220 919,218 919,218 914,213 914,210 912,210 912,210 909,208 907,206 907,203 907,203 905,201 902,201 902,201 898,198 895,198 895,198 893,196 890,194 890,194 883,189 883,189 878,189 878,189 874,187 874,187 869,187 867,187 864,187 864,187 859,187 859,187 855,187 850,187 845,187 845,187 838,187 838,187 833,187 831,187 828,182 826,182 826,182 819,179 819,179 812,179 804,179 800,179 800,179 795,177 795,177 788,177 785,177 781,177 781,177 778,175 778,175 776,172 776,172 771,172 766,172 766,172 762,172 762,172 757,172 757,172 752,172 745,184" stroke="#f8691c" stroke-width="5" /><polygon fill="none" points="1184,220 1177,218 1177,220 1177,220 1170,220 1170,220 1167,225 1165,227 1162,227 1162,227 1158,229 1155,232 1153,234 1148,234 1146,234 1143,237 1141,239 1136,239 1136,239 1131,241 1129,241 1129,241 1124,241 1124,241 1117,246 1112,246 1108,246 1103,246 1096,246 1096,246 1088,246 1086,246 1086,246 1081,246 1081,246 1076,246 1074,246 1074,246 1072,249 1069,249 1069,249 1065,249 1062,253 1060,253 1055,253 1055,253 1050,256 1050,256 1045,260 1043,260 1043,260 1036,263 1034,265 1029,265 1026,268 1022,270 1017,270 1014,270 1014,270 1010,272 1010,272 1005,272 1005,272 1000,275 1000,275 998,277 993,277 993,277 991,280 991,280 991,284 991,284 991,289 991,289 991,294 991,294 991,299 991,299 991,303 991,303 991,308 991,308 991,313 993,315 993,315 993,320 993,320 998,323 1000,325 1000,330 1005,332 1005,332 1007,339 1010,342 1010,342 1014,344 1014,344 1017,346 1019,349 1024,351 1029,354 1034,356 1034,356 1038,356 1038,356 1045,358 1050,363 1050,363 1055,363 1055,363 1057,365 1062,365 1062,365 1065,368 1065,368 1067,370 1067,370 1072,370 1076,373 1079,375 1079,375 1084,377 1084,377 1088,380 1088,380 1093,380 1093,380 1096,382 1096,382 1100,382 1103,385 1110,392 1110,392 1117,394 1122,399 1122,399 1129,404 1129,404 1136,408 1136,408 1141,408 1141,408 1143,411 1143,411 1148,411 1150,413 1150,413 1155,416 1160,416 1165,418 1165,418 1170,418 1170,418 1174,418 1174,418 1179,418 1179,418 1184,418 1189,420 1189,420 1193,420 1193,420 1198,420 1198,420 1203,420 1203,420 1208,420 1208,420 1212,420 1212,420 1215,423 1220,425 1220,425 1227,425 1232,430 1239,432 1244,432 1244,432 1248,432 1248,432 1253,432 1258,432 1258,432 1265,432 1265,432 1267,430 1270,428 1270,428 1275,425 1277,423 1277,423 1282,423 1284,420 1289,418 1291,416 1291,416 1298,416 1298,416 1303,416 1306,413 1306,413 1310,411 1317,408 1317,408 1322,406 1322,406 1327,406 1329,404 1329,399 1329,399 1334,399 1334,399 1341,394 1341,394 1346,394 1346,394 1351,394 1351,394 1356,394 1360,394 1360,394 1365,394 1365,394 1370,396 1370,396 1375,396 1377,399 1377,399 1382,399 1384,401 1384,401 1389,401 1389,401 1394,401 1394,401 1399,401 1403,401 1403,401 1408,401 1411,401 1413,399 1418,396 1418,396 1418,392 1418,392 1418,387 1420,382 1420,382 1420,375 1420,375 1420,370 1420,368 1420,365 1420,365 1422,363 1422,363 1422,358 1422,358 1427,356 1427,356 1432,354 1434,351 1437,349 1437,346 1437,346 1442,344 1442,344 1444,342 1444,342 1446,339 1449,337 1449,337 1449,332 1451,330 1453,327 1453,327 1453,323 1456,320 1456,318 1456,318 1458,313 1458,313 1461,311 1463,308 1463,308 1465,306 1468,303 1468,303 1470,301 1470,301 1473,299 1475,296 1475,296 1475,292 1475,287 1475,287 1475,282 1475,280 1475,280 1475,275 1473,270 1473,270 1470,268 1468,265 1465,265 1458,260 1453,260 1449,258 1444,256 1444,256 1437,256 1432,253 1430,253 1430,253 1422,251 1418,249 1413,246 1411,244 1406,244 1406,244 1403,241 1401,241 1401,239 1401,239 1399,237 1396,237 1396,237 1391,237 1389,234 1387,232 1384,232 1384,232 1380,229 1380,229 1375,229 1372,227 1372,227 1368,227 1360,222 1358,222 1353,220 1353,220 1346,220 1337,215 1337,215 1332,213 1327,213 1322,213 1317,210 1313,210 1308,208 1303,208 1298,208 1296,206 1294,206 1294,206 1286,203 1286,203 1279,203 1277,203 1272,203 1270,203 1270,203 1263,203 1258,203 1251,203 1248,203 1244,203 1236,203 1236,203 1227,203 1222,203 1222,203 1217,203 1217,203 1212,203 1210,203 1210,203 1205,203 1205,203 1201,203 1201,203 1196,203 1196,203 1191,206 1191,206 1189,208 1189,208 1186,210 1184,210 1181,213 1181,213 1179,215 1184,220" stroke="#f8691c" stroke-width="5" /><polygon fill="none" points="1616,862 1609,862 1606,862 1601,859 1601,859 1594,857 1592,857 1589,855 1582,852 1580,852 1575,850 1573,847 1568,845 1566,843 1563,840 1561,836 1561,836 1558,833 1556,831 1556,828 1551,826 1551,826 1549,824 1549,824 1544,824 1542,824 1542,824 1537,824 1535,821 1532,821 1532,821 1527,821 1527,821 1523,821 1520,821 1520,821 1516,821 1516,821 1511,821 1506,821 1506,821 1504,824 1504,824 1499,824 1499,824 1494,824 1494,824 1487,824 1487,824 1482,824 1482,824 1477,824 1477,824 1473,826 1473,826 1470,831 1470,831 1465,833 1465,833 1463,838 1461,845 1458,847 1458,847 1456,852 1456,852 1456,859 1456,864 1453,867 1451,869 1451,874 1451,874 1451,881 1449,883 1446,886 1446,886 1446,890 1444,893 1444,893 1444,898 1442,900 1439,900 1437,902 1434,905 1432,907 1427,907 1422,912 1420,914 1418,914 1415,917 1413,919 1413,919 1411,921 1411,921 1408,924 1408,924 1406,929 1406,933 1406,933 1406,938 1401,943 1401,943 1399,950 1396,950 1396,950 1394,957 1391,962 1391,962 1391,967 1391,967 1391,972 1389,976 1389,976 1389,981 1389,981 1389,986 1389,991 1391,995 1394,1000 1396,1003 1396,1007 1399,1012 1399,1012 1401,1017 1401,1017 1408,1019 1413,1019 1413,1019 1418,1019 1418,1019 1422,1019 1427,1024 1432,1024 1432,1024 1439,1024 1444,1024 1444,1024 1449,1024 1453,1026 1458,1026 1458,1026 1465,1026 1465,1026 1468,1029 1473,1029 1477,1031 1482,1034 1482,1034 1487,1036 1492,1036 1496,1038 1496,1038 1499,1041 1499,1041 1504,1041 1504,1041 1508,1043 1508,1043 1513,1045 1518,1045 1520,1048 1527,1048 1527,1048 1535,1050 1535,1050 1539,1050 1539,1050 1544,1053 1547,1055 1547,1055 1551,1055 1556,1055 1561,1055 1561,1055 1563,1057 1563,1057 1568,1057 1568,1057 1575,1057 1575,1057 1580,1060 1582,1062 1582,1062 1587,1062 1587,1062 1592,1062 1592,1062 1597,1062 1597,1062 1604,1062 1604,1062 1609,1062 1616,1062 1623,1065 1623,1065 1632,1065 1640,1067 1647,1067 1652,1069 1652,1069 1656,1069 1656,1069 1661,1072 1661,1072 1668,1072 1673,1074 1678,1076 1678,1076 1680,1079 1680,1079 1685,1081 1690,1084 1690,1084 1694,1086 1694,1086 1699,1088 1699,1088 1706,1088 1709,1091 1709,1091 1714,1091 1714,1091 1716,1093 1716,1093 1721,1093 1723,1096 1723,1096 1728,1096 1728,1096 1733,1096 1737,1096 1737,1096 1742,1098 1742,1098 1749,1098 1749,1098 1754,1098 1754,1098 1759,1098 1759,1098 1764,1098 1768,1096 1768,1096 1773,1093 1778,1091 1783,1086 1785,1084 1788,1081 1790,1079 1790,1079 1792,1074 1795,1072 1795,1067 1795,1067 1795,1062 1795,1060 1795,1060 1795,1053 1795,1050 1795,1045 1795,1043 1795,1041 1795,1041 1795,1036 1795,1031 1795,1031 1795,1026 1795,1024 1795,1022 1795,1022 1795,1017 1795,1017 1795,1012 1795,1010 1795,1010 1795,1005 1795,1003 1795,1000 1792,995 1790,993 1785,988 1783,986 1778,979 1776,976 1776,974 1776,974 1771,969 1771,969 1768,967 1766,964 1766,962 1766,962 1761,957 1759,957 1756,955 1754,955 1752,950 1749,950 1749,950 1745,950 1740,950 1735,948 1730,948 1725,948 1723,948 1723,948 1718,948 1716,948 1716,948 1711,948 1711,948 1706,948 1706,948 1702,945 1702,945 1697,945 1694,943 1692,940 1687,940 1685,938 1685,938 1680,936 1678,936 1675,931 1673,929 1671,926 1668,926 1666,924 1663,921 1661,919 1659,917 1649,912 1647,912 1644,909 1642,905 1640,905 1637,902 1635,898 1635,898 1630,895 1628,893 1628,893 1625,888 1625,886 1625,886 1620,883 1620,883 1620,878 1620,876 1618,871 1618,871 1613,857 1609,855 1609,855 1616,862" stroke="#f8691c" stroke-width="5" /><polygon fill="none" points="635,1041 640,1041 642,1041 652,1043 666,1048 666,1048 671,1048 671,1048 676,1048 680,1048 680,1048 685,1048 685,1048 690,1048 695,1048 695,1048 700,1048 700,1048 704,1048 709,1048 711,1050 711,1050 716,1050 726,1053 726,1053 728,1055 728,1055 733,1055 738,1057 738,1057 742,1060 742,1060 747,1060 752,1062 757,1065 762,1065 762,1065 764,1067 766,1069 771,1072 771,1072 773,1074 773,1074 776,1079 776,1079 781,1081 781,1081 783,1084 783,1084 788,1084 788,1084 793,1086 793,1086 797,1088 802,1088 802,1088 804,1091 804,1091 809,1091 809,1091 816,1093 816,1093 819,1096 819,1096 824,1096 828,1098 828,1098 833,1098 833,1098 838,1098 843,1100 843,1100 850,1100 850,1100 855,1100 855,1100 859,1100 859,1100 864,1100 869,1105 869,1105 874,1108 874,1108 883,1108 883,1108 888,1108 888,1108 893,1108 893,1108 895,1110 895,1110 898,1112 898,1112 900,1115 905,1115 909,1115 909,1115 914,1115 919,1117 919,1117 924,1117 931,1119 936,1119 943,1122 943,1122 950,1122 950,1122 957,1124 957,1124 964,1124 964,1124 972,1124 972,1124 979,1124 979,1124 983,1124 983,1124 988,1124 988,1124 993,1124 993,1124 998,1124 998,1124 1003,1124 1003,1124 1007,1124 1007,1124 1012,1124 1012,1124 1017,1124 1022,1124 1022,1124 1029,1124 1029,1124 1036,1124 1036,1124 1041,1124 1045,1124 1045,1124 1050,1124 1050,1124 1055,1124 1055,1124 1060,1124 1060,1124 1069,1124 1074,1124 1081,1129 1086,1129 1086,1129 1093,1129 1093,1129 1100,1129 1100,1129 1108,1129 1108,1129 1112,1129 1112,1129 1117,1129 1117,1129 1122,1129 1122,1129 1127,1129 1127,1129 1131,1129 1131,1129 1136,1129 1136,1129 1141,1129 1141,1129 1146,1129 1150,1129 1150,1129 1155,1129 1155,1129 1160,1129 1160,1129 1165,1129 1165,1129 1170,1129 1170,1129 1174,1129 1174,1129 1179,1129 1179,1129 1184,1129 1184,1129 1191,1129 1191,1129 1198,1129 1198,1129 1205,1129 1205,1129 1210,1129 1210,1129 1215,1129 1220,1127 1220,1127 1224,1127 1224,1127 1227,1122 1227,1122 1232,1122 1232,1119 1232,1119 1236,1119 1236,1117 1236,1117 1236,1112 1236,1110 1239,1108 1239,1108 1239,1103 1241,1100 1241,1098 1244,1093 1244,1091 1244,1088 1244,1088 1244,1084 1244,1081 1244,1079 1244,1074 1244,1072 1244,1069 1244,1069 1244,1065 1244,1062 1244,1060 1244,1060 1244,1055 1244,1055 1244,1050 1244,1050 1244,1043 1241,1041 1239,1038 1234,1036 1229,1036 1227,1036 1222,1036 1217,1034 1215,1031 1210,1031 1205,1029 1205,1029 1201,1029 1201,1029 1196,1029 1191,1026 1189,1026 1181,1026 1179,1024 1179,1024 1174,1024 1172,1022 1172,1022 1167,1022 1167,1022 1162,1019 1155,1014 1155,1014 1150,1014 1146,1014 1146,1014 1141,1012 1136,1012 1131,1010 1124,1007 1124,1007 1119,1007 1117,1005 1117,1005 1112,1005 1112,1005 1110,1003 1103,1000 1100,998 1098,998 1093,995 1088,995 1086,991 1081,991 1076,988 1074,988 1072,986 1069,983 1065,981 1057,981 1057,981 1053,979 1048,979 1045,976 1043,976 1041,974 1041,974 1026,967 1026,967 1019,964 1014,964 1014,964 1007,964 1007,962 1005,962 1005,962 998,962 993,960 979,957 972,957 962,955 957,955 955,955 955,955 950,955 945,955 938,955 938,955 931,950 924,950 917,948 917,948 907,948 907,948 902,948 898,948 895,948 890,948 886,945 886,945 874,943 874,943 867,943 859,940 859,940 857,938 857,938 852,938 852,938 847,938 845,938 845,938 833,933 828,931 824,931 824,931 819,929 819,929 814,929 814,929 809,929 804,926 804,926 800,926 793,926 788,924 781,924 776,924 776,924 769,924 764,924 759,924 757,921 757,921 750,921 745,917 738,917 738,917 731,917 723,917 719,917 714,917 711,917 709,917 709,917 704,917 700,917 700,917 695,917 690,917 688,917 683,917 683,917 678,917 678,917 676,914 673,914 668,914 668,914 664,914 664,914 659,914 659,914 654,914 652,914 647,914 647,914 642,914 642,914 635,914 633,914 630,914 630,914 626,914 626,914 621,914 621,914 616,914 614,914 609,914 606,917 602,917 602,917 597,917 595,917 592,919 592,919 587,919 583,919 583,919 578,919 575,921 573,921 568,924 568,924 559,924 554,924 554,924 552,926 552,926 547,926 542,926 542,926 537,926 535,926 532,926 530,929 530,929 525,929 523,931 523,931 518,931 513,933 511,936 511,936 506,936 506,936 506,940 506,940 506,945 506,945 506,950 506,950 506,955 506,955 509,957 511,962 513,964 516,967 518,969 525,976 528,979 532,981 535,983 537,986 542,988 544,991 544,991 552,993 554,995 554,995 556,998 559,1000 566,1000 573,1005 578,1007 578,1007 585,1012 585,1012 590,1012 595,1012 602,1014 606,1017 614,1019 623,1022 628,1022 635,1041" stroke="#f8691c" stroke-width="5" /></svg>